<svg width="300" height="300" viewBox="0 0 300 300" fill="none" xmlns="http://www.w3.org/2000/svg">
<rect x="6.25" y="6.25" width="287.5" height="287.5" fill="#C1C1C1" stroke="#828282" stroke-width="12.5"/>
<rect x="25" y="25" width="250" height="250" fill="#C1C1C1"/>
<path d="M150 43L129.793 78H170.207L150 43ZM257 150L222 129.793V170.207L257 150ZM150 257L170.207 222H129.793L150 257ZM43 150L78 170.207V129.793L43 150ZM153.5 150V74.5H146.5V150H153.5ZM150 153.5H225.5V146.5H150V153.5ZM146.5 150V225.5H153.5V150H146.5ZM150 146.5H74.5V153.5H150V146.5Z" fill="#2E2E2E"/>
<path d="M75 75L85.4601 114.037L114.037 85.46L75 75ZM225 75L185.963 85.46L214.54 114.037L225 75ZM225 225L214.54 185.963L185.963 214.54L225 225ZM75 225L114.037 214.54L85.4601 185.963L75 225ZM152.475 147.525L99.7487 94.799L94.799 99.7487L147.525 152.475L152.475 147.525ZM152.475 152.475L205.201 99.7487L200.251 94.799L147.525 147.525L152.475 152.475ZM147.525 152.475L200.251 205.201L205.201 200.251L152.475 147.525L147.525 152.475ZM147.525 147.525L94.799 200.251L99.7487 205.201L152.475 152.475L147.525 147.525Z" fill="#2E2E2E"/>
<g filter="url(#filter0_i_13_2)">
<circle cx="150" cy="150" r="77" fill="black"/>
</g>
<circle cx="118.5" cy="118.5" r="17.5" fill="#D9D9D9"/>
<defs>
<filter id="filter0_i_13_2" x="67" y="67" width="160" height="160" filterUnits="userSpaceOnUse" color-interpolation-filters="sRGB">
<feFlood flood-opacity="0" result="BackgroundImageFix"/>
<feBlend mode="normal" in="SourceGraphic" in2="BackgroundImageFix" result="shape"/>
<feColorMatrix in="SourceAlpha" type="matrix" values="0 0 0 0 0 0 0 0 0 0 0 0 0 0 0 0 0 0 127 0" result="hardAlpha"/>
<feOffset dx="-8" dy="-8"/>
<feGaussianBlur stdDeviation="3"/>
<feComposite in2="hardAlpha" operator="arithmetic" k2="-1" k3="1"/>
<feColorMatrix type="matrix" values="0 0 0 0 0.756863 0 0 0 0 0.756863 0 0 0 0 0.756863 0 0 0 1 0"/>
<feBlend mode="normal" in2="shape" result="effect1_innerShadow_13_2"/>
</filter>
</defs>
</svg>
