<svg width="300" height="300" viewBox="0 0 300 300" fill="none" xmlns="http://www.w3.org/2000/svg">
<rect x="6.25" y="6.25" width="287.5" height="287.5" fill="#C1C1C1" stroke="#828282" stroke-width="12.5"/>
<path d="M150.299 247C141.132 247 132.882 245.5 125.549 242.5C118.215 239.333 111.965 234.917 106.799 229.25C101.799 223.417 97.8822 216.333 95.0488 208C92.3822 199.667 91.0488 190.333 91.0488 180C91.0488 167 92.9655 154.833 96.7988 143.5C100.799 132 105.799 121.583 111.799 112.25C117.965 102.75 124.799 94.4167 132.299 87.25C139.799 79.9167 147.132 74 154.299 69.5H181.299C171.799 76.3333 163.299 83 155.799 89.5C148.465 96 141.965 102.833 136.299 110C130.632 117 125.882 124.583 122.049 132.75C118.215 140.75 115.049 149.833 112.549 160L113.799 160.5C117.965 153.333 123.465 147.417 130.299 142.75C137.132 137.917 145.966 135.5 156.799 135.5C164.466 135.5 171.466 136.75 177.799 139.25C184.132 141.75 189.632 145.333 194.299 150C198.965 154.667 202.549 160.333 205.049 167C207.716 173.667 209.049 181.083 209.049 189.25C209.049 197.75 207.632 205.583 204.799 212.75C201.966 219.75 197.966 225.833 192.799 231C187.799 236 181.632 239.917 174.299 242.75C167.132 245.583 159.132 247 150.299 247ZM150.049 229.25C162.049 229.25 171.299 226 177.799 219.5C184.466 213 187.799 203.833 187.799 192V190C187.799 178.167 184.466 169 177.799 162.5C171.299 156 162.049 152.75 150.049 152.75C138.049 152.75 128.715 156 122.049 162.5C115.549 169 112.299 178.167 112.299 190V192C112.299 203.833 115.549 213 122.049 219.5C128.715 226 138.049 229.25 150.049 229.25Z" fill="#0AFF99"/>
</svg>
