<svg width="300" height="300" viewBox="0 0 300 300" fill="none" xmlns="http://www.w3.org/2000/svg">
<rect x="6.25" y="6.25" width="287.5" height="287.5" fill="#C1C1C1" stroke="#828282" stroke-width="12.5"/>
<path d="M142.549 143.5C154.715 143.5 163.799 140.833 169.799 135.5C175.965 130 179.049 123 179.049 114.5V112.75C179.049 103.417 176.049 96.4167 170.049 91.75C164.216 87.0833 156.549 84.75 147.049 84.75C137.715 84.75 130.132 86.8333 124.299 91C118.632 95 113.965 100.333 110.299 107L94.5488 95C96.7155 91.5 99.3822 88.0833 102.549 84.75C105.715 81.25 109.382 78.1667 113.549 75.5C117.882 72.8333 122.799 70.6667 128.299 69C133.965 67.3333 140.382 66.5 147.549 66.5C155.049 66.5 162.049 67.5 168.549 69.5C175.049 71.3333 180.716 74.1667 185.549 78C190.382 81.6667 194.132 86.25 196.799 91.75C199.632 97.25 201.049 103.5 201.049 110.5C201.049 116.167 200.132 121.25 198.299 125.75C196.632 130.25 194.215 134.167 191.049 137.5C188.049 140.833 184.465 143.667 180.299 146C176.132 148.333 171.716 150.083 167.049 151.25V152.25C171.882 153.25 176.549 154.917 181.049 157.25C185.549 159.417 189.549 162.333 193.049 166C196.549 169.5 199.299 173.833 201.299 179C203.465 184 204.549 189.75 204.549 196.25C204.549 203.75 203.049 210.667 200.049 217C197.215 223.167 193.132 228.5 187.799 233C182.632 237.333 176.299 240.75 168.799 243.25C161.466 245.75 153.299 247 144.299 247C136.632 247 129.799 246.167 123.799 244.5C117.965 242.833 112.715 240.583 108.049 237.75C103.549 234.917 99.5488 231.75 96.0488 228.25C92.7155 224.75 89.7155 221.083 87.0488 217.25L102.799 205.25C105.132 208.75 107.549 211.917 110.049 214.75C112.549 217.583 115.382 220.083 118.549 222.25C121.882 224.25 125.632 225.833 129.799 227C133.965 228.167 138.799 228.75 144.299 228.75C156.632 228.75 166.049 225.917 172.549 220.25C179.215 214.583 182.549 206.5 182.549 196V194C182.549 183.667 179.299 175.667 172.799 170C166.465 164.333 156.882 161.5 144.049 161.5H123.299V143.5H142.549Z" fill="#FFD300"/>
</svg>
