<svg width="300" height="390" viewBox="0 0 300 390" fill="none" xmlns="http://www.w3.org/2000/svg">
<rect x="6.25" y="56.25" width="287.5" height="287.5" fill="#C1C1C1" stroke="#828282" stroke-width="12.5"/>
<path d="M150.059 311.6C137.859 311.6 127.159 310.1 117.959 307.1C108.759 303.9 101.059 299.6 94.8586 294.2C88.8586 288.8 84.2586 282.4 81.0586 275C78.0586 267.6 76.5586 259.6 76.5586 251C76.5586 236.6 80.4586 225.2 88.2586 216.8C96.0586 208.4 106.359 202.5 119.159 199.1V196.7C107.959 192.9 99.0586 186.8 92.4586 178.4C86.0586 169.8 82.8586 159.5 82.8586 147.5C82.8586 131.5 88.7586 118.8 100.559 109.4C112.359 99.8 128.859 95 150.059 95C171.259 95 187.759 99.8 199.559 109.4C211.359 118.8 217.259 131.5 217.259 147.5C217.259 159.5 213.959 169.8 207.359 178.4C200.959 186.8 192.159 192.9 180.959 196.7V199.1C193.759 202.5 204.059 208.4 211.859 216.8C219.659 225.2 223.559 236.6 223.559 251C223.559 259.6 221.959 267.6 218.759 275C215.759 282.4 211.159 288.8 204.959 294.2C198.759 299.6 191.059 303.9 181.859 307.1C172.859 310.1 162.259 311.6 150.059 311.6ZM150.059 290.3C164.859 290.3 176.459 287 184.859 280.4C193.259 273.8 197.459 264.5 197.459 252.5V245.9C197.459 233.9 193.259 224.6 184.859 218C176.659 211.4 165.059 208.1 150.059 208.1C135.059 208.1 123.359 211.4 114.959 218C106.759 224.6 102.659 233.9 102.659 245.9V252.5C102.659 264.5 106.859 273.8 115.259 280.4C123.659 287 135.259 290.3 150.059 290.3ZM150.059 187.7C163.659 187.7 173.959 184.8 180.959 179C188.159 173.2 191.759 164.9 191.759 154.1V149.9C191.759 139.1 188.059 130.8 180.659 125C173.459 119.2 163.259 116.3 150.059 116.3C136.859 116.3 126.559 119.2 119.159 125C111.959 130.8 108.359 139.1 108.359 149.9V154.1C108.359 164.9 111.859 173.2 118.859 179C126.059 184.8 136.459 187.7 150.059 187.7Z" fill="#147DF5"/>
<path d="M117.959 307.1L116.645 310.878L116.681 310.891L116.719 310.903L117.959 307.1ZM94.8586 294.2L92.1827 297.173L92.2069 297.195L92.2315 297.216L94.8586 294.2ZM81.0586 275L77.3516 276.503L77.3689 276.545L77.3872 276.588L81.0586 275ZM88.2586 216.8L91.1898 219.522L91.1898 219.522L88.2586 216.8ZM119.159 199.1L120.185 202.966L123.159 202.176V199.1H119.159ZM119.159 196.7H123.159V193.833L120.444 192.912L119.159 196.7ZM92.4586 178.4L89.2497 180.788L89.2809 180.83L89.3133 180.871L92.4586 178.4ZM100.559 109.4L103.051 112.529L103.067 112.516L103.083 112.503L100.559 109.4ZM199.559 109.4L197.034 112.503L197.05 112.516L197.066 112.529L199.559 109.4ZM207.359 178.4L204.185 175.965L204.177 175.976L207.359 178.4ZM180.959 196.7L179.673 192.912L176.959 193.833V196.7H180.959ZM180.959 199.1H176.959V202.176L179.932 202.966L180.959 199.1ZM211.859 216.8L214.79 214.078L214.79 214.078L211.859 216.8ZM218.759 275L215.087 273.412L215.069 273.455L215.052 273.497L218.759 275ZM181.859 307.1L183.124 310.895L183.148 310.887L183.173 310.878L181.859 307.1ZM184.859 280.4L182.387 277.255L182.387 277.255L184.859 280.4ZM184.859 218L182.351 221.116L182.369 221.131L182.387 221.145L184.859 218ZM114.959 218L112.487 214.855L112.469 214.869L112.451 214.884L114.959 218ZM115.259 280.4L117.73 277.255L117.73 277.255L115.259 280.4ZM180.959 179L178.449 175.885L178.428 175.902L178.407 175.92L180.959 179ZM180.659 125L178.149 128.115L178.17 128.132L178.191 128.148L180.659 125ZM119.159 125L116.691 121.852L116.67 121.868L116.649 121.885L119.159 125ZM118.859 179L116.307 182.08L116.328 182.098L116.349 182.115L118.859 179ZM150.059 307.6C138.175 307.6 127.91 306.138 119.199 303.297L116.719 310.903C126.408 314.062 137.542 315.6 150.059 315.6V307.6ZM119.273 303.322C110.468 300.259 103.237 296.192 97.4857 291.184L92.2315 297.216C98.8806 303.008 107.05 307.541 116.645 310.878L119.273 303.322ZM97.5345 291.227C91.9615 286.211 87.7014 280.284 84.73 273.412L77.3872 276.588C80.8158 284.516 85.7556 291.389 92.1827 297.173L97.5345 291.227ZM84.7656 273.497C81.9736 266.61 80.5586 259.125 80.5586 251H72.5586C72.5586 260.075 74.1436 268.59 77.3516 276.503L84.7656 273.497ZM80.5586 251C80.5586 237.34 84.2406 227.005 91.1898 219.522L85.3274 214.078C76.6766 223.394 72.5586 235.86 72.5586 251H80.5586ZM91.1898 219.522C98.3999 211.757 108 206.203 120.185 202.966L118.132 195.234C104.717 198.797 93.7173 205.043 85.3274 214.078L91.1898 219.522ZM123.159 199.1V196.7H115.159V199.1H123.159ZM120.444 192.912C109.897 189.334 101.674 183.654 95.6039 175.929L89.3133 180.871C96.4432 189.946 106.02 196.466 117.873 200.488L120.444 192.912ZM95.6675 176.012C89.842 168.184 86.8586 158.747 86.8586 147.5H78.8586C78.8586 160.253 82.2752 171.416 89.2497 180.788L95.6675 176.012ZM86.8586 147.5C86.8586 132.633 92.2682 121.118 103.051 112.529L98.0663 106.271C85.249 116.482 78.8586 130.367 78.8586 147.5H86.8586ZM103.083 112.503C113.934 103.674 129.421 99 150.059 99V91C128.296 91 110.783 95.9255 98.0342 106.297L103.083 112.503ZM150.059 99C170.696 99 186.183 103.674 197.034 112.503L202.083 106.297C189.334 95.9255 171.821 91 150.059 91V99ZM197.066 112.529C207.849 121.118 213.259 132.633 213.259 147.5H221.259C221.259 130.367 214.868 116.482 202.051 106.271L197.066 112.529ZM213.259 147.5C213.259 158.719 210.192 168.138 204.185 175.965L210.532 180.835C217.726 171.462 221.259 160.281 221.259 147.5H213.259ZM204.177 175.976C198.316 183.668 190.213 189.336 179.673 192.912L182.244 200.488C194.104 196.464 203.601 189.932 210.54 180.824L204.177 175.976ZM176.959 196.7V199.1H184.959V196.7H176.959ZM179.932 202.966C192.117 206.203 201.717 211.757 208.927 219.522L214.79 214.078C206.4 205.043 195.4 198.797 181.985 195.234L179.932 202.966ZM208.927 219.522C215.877 227.005 219.559 237.34 219.559 251H227.559C227.559 235.86 223.441 223.394 214.79 214.078L208.927 219.522ZM219.559 251C219.559 259.091 218.056 266.546 215.087 273.412L222.43 276.588C225.861 268.654 227.559 260.109 227.559 251H219.559ZM215.052 273.497C212.295 280.297 208.072 286.184 202.331 291.184L207.586 297.216C214.245 291.416 219.222 284.503 222.466 276.503L215.052 273.497ZM202.331 291.184C196.581 296.192 189.35 300.259 180.545 303.322L183.173 310.878C192.768 307.541 200.937 303.008 207.586 297.216L202.331 291.184ZM180.594 303.305C172.099 306.137 161.945 307.6 150.059 307.6V315.6C162.572 315.6 173.618 314.063 183.124 310.895L180.594 303.305ZM150.059 294.3C165.415 294.3 177.998 290.878 187.33 283.545L182.387 277.255C174.92 283.122 164.303 286.3 150.059 286.3V294.3ZM187.33 283.545C196.823 276.087 201.459 265.555 201.459 252.5H193.459C193.459 263.445 189.694 271.513 182.387 277.255L187.33 283.545ZM201.459 252.5V245.9H193.459V252.5H201.459ZM201.459 245.9C201.459 232.845 196.823 222.313 187.33 214.855L182.387 221.145C189.694 226.887 193.459 234.955 193.459 245.9H201.459ZM187.367 214.884C178.208 207.512 165.592 204.1 150.059 204.1V212.1C164.525 212.1 175.109 215.288 182.351 221.116L187.367 214.884ZM150.059 204.1C134.517 204.1 121.828 207.516 112.487 214.855L117.43 221.145C124.889 215.284 135.6 212.1 150.059 212.1V204.1ZM112.451 214.884C103.168 222.356 98.6586 232.88 98.6586 245.9H106.659C106.659 234.92 110.35 226.844 117.467 221.116L112.451 214.884ZM98.6586 245.9V252.5H106.659V245.9H98.6586ZM98.6586 252.5C98.6586 265.555 103.294 276.087 112.787 283.545L117.73 277.255C110.423 271.513 106.659 263.445 106.659 252.5H98.6586ZM112.787 283.545C122.12 290.878 134.703 294.3 150.059 294.3V286.3C135.815 286.3 125.198 283.122 117.73 277.255L112.787 283.545ZM150.059 191.7C164.145 191.7 175.512 188.707 183.511 182.08L178.407 175.92C172.405 180.893 163.172 183.7 150.059 183.7V191.7ZM183.468 182.115C191.775 175.423 195.759 165.883 195.759 154.1H187.759C187.759 163.917 184.543 170.977 178.449 175.885L183.468 182.115ZM195.759 154.1V149.9H187.759V154.1H195.759ZM195.759 149.9C195.759 138.077 191.645 128.529 183.126 121.852L178.191 128.148C184.472 133.071 187.759 140.123 187.759 149.9H195.759ZM183.168 121.885C175.008 115.312 163.79 112.3 150.059 112.3V120.3C162.727 120.3 171.909 123.088 178.149 128.115L183.168 121.885ZM150.059 112.3C136.318 112.3 125.031 115.315 116.691 121.852L121.626 128.148C128.086 123.085 137.399 120.3 150.059 120.3V112.3ZM116.649 121.885C108.343 128.577 104.359 138.117 104.359 149.9H112.359C112.359 140.083 115.575 133.023 121.668 128.115L116.649 121.885ZM104.359 149.9V154.1H112.359V149.9H104.359ZM104.359 154.1C104.359 165.843 108.214 175.375 116.307 182.08L121.411 175.92C115.503 171.025 112.359 163.957 112.359 154.1H104.359ZM116.349 182.115C124.527 188.703 135.961 191.7 150.059 191.7V183.7C136.956 183.7 127.59 180.897 121.368 175.885L116.349 182.115Z" fill="black"/>
</svg>
