<svg width="300" height="300" viewBox="0 0 300 300" fill="none" xmlns="http://www.w3.org/2000/svg">
<rect x="6.25" y="6.25" width="287.5" height="287.5" fill="#C1C1C1" stroke="#828282" stroke-width="12.5"/>
<path d="M141.059 142.4C155.659 142.4 166.559 139.2 173.759 132.8C181.159 126.2 184.859 117.8 184.859 107.6V105.5C184.859 94.3 181.259 85.9 174.059 80.3C167.059 74.7 157.859 71.9 146.459 71.9C135.259 71.9 126.159 74.4 119.159 79.4C112.359 84.2 106.759 90.6 102.359 98.6L83.4586 84.2C86.0586 80 89.2586 75.9 93.0586 71.9C96.8586 67.7 101.259 64 106.259 60.8C111.459 57.6 117.359 55 123.959 53C130.759 51 138.459 50 147.059 50C156.059 50 164.459 51.2 172.259 53.6C180.059 55.8 186.859 59.2 192.659 63.8C198.459 68.2 202.959 73.7 206.159 80.3C209.559 86.9 211.259 94.4 211.259 102.8C211.259 109.6 210.159 115.7 207.959 121.1C205.959 126.5 203.059 131.2 199.259 135.2C195.659 139.2 191.359 142.6 186.359 145.4C181.359 148.2 176.059 150.3 170.459 151.7V152.9C176.259 154.1 181.859 156.1 187.259 158.9C192.659 161.5 197.459 165 201.659 169.4C205.859 173.6 209.159 178.8 211.559 185C214.159 191 215.459 197.9 215.459 205.7C215.459 214.7 213.659 223 210.059 230.6C206.659 238 201.759 244.4 195.359 249.8C189.159 255 181.559 259.1 172.559 262.1C163.759 265.1 153.959 266.6 143.159 266.6C133.959 266.6 125.759 265.6 118.559 263.6C111.559 261.6 105.259 258.9 99.6586 255.5C94.2586 252.1 89.4586 248.3 85.2586 244.1C81.2586 239.9 77.6586 235.5 74.4586 230.9L93.3586 216.5C96.1586 220.7 99.0586 224.5 102.059 227.9C105.059 231.3 108.459 234.3 112.259 236.9C116.259 239.3 120.759 241.2 125.759 242.6C130.759 244 136.559 244.7 143.159 244.7C157.959 244.7 169.259 241.3 177.059 234.5C185.059 227.7 189.059 218 189.059 205.4V203C189.059 190.6 185.159 181 177.359 174.2C169.759 167.4 158.259 164 142.859 164H117.959V142.4H141.059Z" fill="#FFD300"/>
<path d="M173.759 132.8L176.416 135.79L176.421 135.785L173.759 132.8ZM174.059 80.3L171.56 83.4235L171.581 83.4406L171.603 83.4574L174.059 80.3ZM119.159 79.4L121.465 82.6679L121.474 82.6614L121.484 82.6549L119.159 79.4ZM102.359 98.6L99.9344 101.782L103.627 104.595L105.863 100.528L102.359 98.6ZM83.4586 84.2L80.0575 82.0946L78.1466 85.1815L81.0344 87.3817L83.4586 84.2ZM93.0586 71.9L95.9586 74.655L95.9921 74.6197L96.0247 74.5836L93.0586 71.9ZM106.259 60.8L104.162 57.3934L104.132 57.4119L104.102 57.4309L106.259 60.8ZM123.959 53L122.83 49.1625L122.814 49.1671L122.799 49.1719L123.959 53ZM172.259 53.6L171.082 57.4231L171.127 57.437L171.173 57.4498L172.259 53.6ZM192.659 63.8L190.173 66.934L190.207 66.9607L190.241 66.9868L192.659 63.8ZM206.159 80.3L202.559 82.0451L202.58 82.0887L202.603 82.1318L206.159 80.3ZM207.959 121.1L204.254 119.591L204.23 119.65L204.208 119.711L207.959 121.1ZM199.259 135.2L196.359 132.445L196.321 132.484L196.285 132.524L199.259 135.2ZM186.359 145.4L188.313 148.89L188.313 148.89L186.359 145.4ZM170.459 151.7L169.488 147.819L166.459 148.577V151.7H170.459ZM170.459 152.9H166.459V156.157L169.648 156.817L170.459 152.9ZM187.259 158.9L185.417 162.451L185.47 162.478L185.523 162.504L187.259 158.9ZM201.659 169.4L198.765 172.162L198.797 172.196L198.83 172.228L201.659 169.4ZM211.559 185L207.828 186.444L207.857 186.518L207.888 186.59L211.559 185ZM210.059 230.6L206.444 228.888L206.434 228.909L206.424 228.93L210.059 230.6ZM195.359 249.8L197.929 252.865L197.938 252.857L195.359 249.8ZM172.559 262.1L171.294 258.305L171.281 258.31L171.268 258.314L172.559 262.1ZM118.559 263.6L117.46 267.446L117.474 267.45L117.488 267.454L118.559 263.6ZM99.6586 255.5L97.5273 258.885L97.5549 258.902L97.5827 258.919L99.6586 255.5ZM85.2586 244.1L82.362 246.859L82.3957 246.894L82.4302 246.928L85.2586 244.1ZM74.4586 230.9L72.0344 227.718L68.9875 230.04L71.175 233.184L74.4586 230.9ZM93.3586 216.5L96.6868 214.281L94.3234 210.736L90.9344 213.318L93.3586 216.5ZM102.059 227.9L105.058 225.254L105.058 225.254L102.059 227.9ZM112.259 236.9L110 240.201L110.098 240.269L110.201 240.33L112.259 236.9ZM177.059 234.5L174.468 231.452L174.449 231.468L174.43 231.485L177.059 234.5ZM177.359 174.2L174.691 177.181L174.711 177.198L174.73 177.215L177.359 174.2ZM117.959 164H113.959V168H117.959V164ZM117.959 142.4V138.4H113.959V142.4H117.959ZM141.059 146.4C156.15 146.4 168.186 143.105 176.416 135.79L171.101 129.81C164.931 135.295 155.168 138.4 141.059 138.4V146.4ZM176.421 135.785C184.699 128.402 188.859 118.903 188.859 107.6H180.859C180.859 116.697 177.618 123.998 171.096 129.815L176.421 135.785ZM188.859 107.6V105.5H180.859V107.6H188.859ZM188.859 105.5C188.859 93.3774 184.911 83.6732 176.514 77.1426L171.603 83.4574C177.606 88.1268 180.859 95.2226 180.859 105.5H188.859ZM176.557 77.1765C168.674 70.87 158.516 67.9 146.459 67.9V75.9C157.201 75.9 165.443 78.53 171.56 83.4235L176.557 77.1765ZM146.459 67.9C134.676 67.9 124.691 70.5327 116.834 76.1451L121.484 82.6549C127.626 78.2673 135.842 75.9 146.459 75.9V67.9ZM116.852 76.1321C109.509 81.315 103.517 88.1928 98.8537 96.6723L105.863 100.528C110 93.0072 115.208 87.085 121.465 82.6679L116.852 76.1321ZM104.783 95.4183L85.8828 81.0183L81.0344 87.3817L99.9344 101.782L104.783 95.4183ZM86.8597 86.3054C89.2997 82.3638 92.3258 78.479 95.9586 74.655L90.1586 69.145C86.1914 73.321 82.8175 77.6362 80.0575 82.0946L86.8597 86.3054ZM96.0247 74.5836C99.5752 70.6595 103.7 67.1868 108.415 64.1691L104.102 57.4309C98.8176 60.8132 94.142 64.7405 90.0925 69.2163L96.0247 74.5836ZM108.355 64.2066C113.227 61.2083 118.806 58.7411 125.119 56.8281L122.799 49.1719C115.911 51.2589 109.69 53.9917 104.162 57.3934L108.355 64.2066ZM125.087 56.8374C131.452 54.9653 138.762 54 147.059 54V46C138.155 46 130.065 47.0346 122.83 49.1625L125.087 56.8374ZM147.059 54C155.7 54 163.7 55.1517 171.082 57.4231L173.435 49.7769C165.217 47.2482 156.417 46 147.059 46V54ZM171.173 57.4498C178.512 59.5198 184.825 62.6928 190.173 66.934L195.144 60.666C188.892 55.7072 181.605 52.0802 173.344 49.7502L171.173 57.4498ZM190.241 66.9868C195.535 71.003 199.632 76.0076 202.559 82.0451L209.758 78.5549C206.285 71.3924 201.382 65.397 195.076 60.6132L190.241 66.9868ZM202.603 82.1318C205.674 88.0946 207.259 94.9527 207.259 102.8H215.259C215.259 93.8473 213.443 85.7053 209.714 78.4682L202.603 82.1318ZM207.259 102.8C207.259 109.167 206.229 114.743 204.254 119.591L211.663 122.609C214.088 116.657 215.259 110.033 215.259 102.8H207.259ZM204.208 119.711C202.387 124.625 199.769 128.855 196.359 132.445L202.159 137.955C206.348 133.545 209.53 128.375 211.71 122.489L204.208 119.711ZM196.285 132.524C192.997 136.178 189.047 139.31 184.404 141.91L188.313 148.89C193.67 145.89 198.321 142.222 202.232 137.876L196.285 132.524ZM184.404 141.91C179.716 144.535 174.747 146.505 169.488 147.819L171.429 155.581C177.37 154.095 183.001 151.865 188.313 148.89L184.404 141.91ZM166.459 151.7V152.9H174.459V151.7H166.459ZM169.648 156.817C175.08 157.941 180.334 159.815 185.417 162.451L189.1 155.349C183.383 152.385 177.437 150.259 171.269 148.983L169.648 156.817ZM185.523 162.504C190.483 164.892 194.892 168.105 198.765 172.162L204.552 166.638C200.025 161.895 194.834 158.108 188.994 155.296L185.523 162.504ZM198.83 172.228C202.592 175.99 205.605 180.701 207.828 186.444L215.289 183.556C212.712 176.899 209.125 171.21 204.487 166.572L198.83 172.228ZM207.888 186.59C210.233 192.001 211.459 198.343 211.459 205.7H219.459C219.459 197.457 218.084 189.999 215.229 183.41L207.888 186.59ZM211.459 205.7C211.459 214.15 209.773 221.86 206.444 228.888L213.674 232.312C217.545 224.14 219.459 215.25 219.459 205.7H211.459ZM206.424 228.93C203.276 235.78 198.743 241.711 192.779 246.743L197.938 252.857C204.774 247.089 210.041 240.22 213.693 232.27L206.424 228.93ZM192.788 246.735C187.034 251.561 179.897 255.437 171.294 258.305L173.824 265.895C183.22 262.763 191.283 258.439 197.929 252.865L192.788 246.735ZM171.268 258.314C162.945 261.151 153.589 262.6 143.159 262.6V270.6C154.328 270.6 164.573 269.049 173.849 265.886L171.268 258.314ZM143.159 262.6C134.24 262.6 126.411 261.63 119.629 259.746L117.488 267.454C125.106 269.57 133.677 270.6 143.159 270.6V262.6ZM119.657 259.754C112.963 257.841 106.998 255.276 101.735 252.081L97.5827 258.919C103.52 262.524 110.154 265.359 117.46 267.446L119.657 259.754ZM101.79 252.115C96.6237 248.862 92.0611 245.246 88.087 241.272L82.4302 246.928C86.8561 251.354 91.8935 255.338 97.5273 258.885L101.79 252.115ZM88.1551 241.341C84.2912 237.284 80.8215 233.042 77.7422 228.616L71.175 233.184C74.4957 237.958 78.226 242.516 82.362 246.859L88.1551 241.341ZM76.8828 234.082L95.7828 219.682L90.9344 213.318L72.0344 227.718L76.8828 234.082ZM90.0304 218.719C92.9192 223.052 95.9277 226.997 99.0592 230.546L105.058 225.254C102.19 222.003 99.398 218.348 96.6868 214.281L90.0304 218.719ZM99.0592 230.546C102.281 234.198 105.931 237.417 110 240.201L114.517 233.599C110.986 231.183 107.836 228.402 105.058 225.254L99.0592 230.546ZM110.201 240.33C114.539 242.933 119.375 244.966 124.68 246.452L126.837 238.748C122.143 237.434 117.978 235.667 114.317 233.47L110.201 240.33ZM124.68 246.452C130.111 247.973 136.288 248.7 143.159 248.7V240.7C136.83 240.7 131.406 240.027 126.837 238.748L124.68 246.452ZM143.159 248.7C158.515 248.7 170.9 245.176 179.687 237.515L174.43 231.485C167.618 237.424 157.403 240.7 143.159 240.7V248.7ZM179.649 237.548C188.723 229.835 193.059 218.915 193.059 205.4H185.059C185.059 217.085 181.394 225.565 174.468 231.452L179.649 237.548ZM193.059 205.4V203H185.059V205.4H193.059ZM193.059 203C193.059 189.695 188.831 178.895 179.987 171.185L174.73 177.215C181.486 183.105 185.059 191.505 185.059 203H193.059ZM180.026 171.219C171.396 163.498 158.756 160 142.859 160V168C157.761 168 168.121 171.302 174.691 177.181L180.026 171.219ZM142.859 160H117.959V168H142.859V160ZM121.959 164V142.4H113.959V164H121.959ZM117.959 146.4H141.059V138.4H117.959V146.4Z" fill="black"/>
</svg>
