<svg width="300" height="300" viewBox="0 0 300 300" fill="none" xmlns="http://www.w3.org/2000/svg">
<rect x="6.25" y="6.25" width="287.5" height="287.5" fill="#C1C1C1" stroke="#828282" stroke-width="12.5"/>
<path d="M150.049 247C139.882 247 130.965 245.75 123.299 243.25C115.632 240.583 109.215 237 104.049 232.5C99.0488 228 95.2155 222.667 92.5488 216.5C90.0488 210.333 88.7988 203.667 88.7988 196.5C88.7988 184.5 92.0488 175 98.5488 168C105.049 161 113.632 156.083 124.299 153.25V151.25C114.965 148.083 107.549 143 102.049 136C96.7155 128.833 94.0488 120.25 94.0488 110.25C94.0488 96.9167 98.9655 86.3333 108.799 78.5C118.632 70.5 132.382 66.5 150.049 66.5C167.715 66.5 181.466 70.5 191.299 78.5C201.132 86.3333 206.049 96.9167 206.049 110.25C206.049 120.25 203.299 128.833 197.799 136C192.466 143 185.132 148.083 175.799 151.25V153.25C186.465 156.083 195.049 161 201.549 168C208.049 175 211.299 184.5 211.299 196.5C211.299 203.667 209.966 210.333 207.299 216.5C204.799 222.667 200.965 228 195.799 232.5C190.632 237 184.215 240.583 176.549 243.25C169.049 245.75 160.216 247 150.049 247ZM150.049 229.25C162.382 229.25 172.049 226.5 179.049 221C186.049 215.5 189.549 207.75 189.549 197.75V192.25C189.549 182.25 186.049 174.5 179.049 169C172.216 163.5 162.549 160.75 150.049 160.75C137.549 160.75 127.799 163.5 120.799 169C113.965 174.5 110.549 182.25 110.549 192.25V197.75C110.549 207.75 114.049 215.5 121.049 221C128.049 226.5 137.715 229.25 150.049 229.25ZM150.049 143.75C161.382 143.75 169.966 141.333 175.799 136.5C181.799 131.667 184.799 124.75 184.799 115.75V112.25C184.799 103.25 181.715 96.3333 175.549 91.5C169.549 86.6667 161.049 84.25 150.049 84.25C139.049 84.25 130.465 86.6667 124.299 91.5C118.299 96.3333 115.299 103.25 115.299 112.25V115.75C115.299 124.75 118.215 131.667 124.049 136.5C130.049 141.333 138.715 143.75 150.049 143.75Z" fill="#147DF5"/>
</svg>
