<svg width="300" height="300" viewBox="0 0 300 300" fill="none" xmlns="http://www.w3.org/2000/svg">
<rect x="6.25" y="6.25" width="287.5" height="287.5" fill="#C1C1C1" stroke="#828282" stroke-width="12.5"/>
<path d="M150.359 266.6C139.359 266.6 129.459 264.8 120.659 261.2C111.859 257.4 104.359 252.1 98.1586 245.3C92.1586 238.3 87.4586 229.8 84.0586 219.8C80.8586 209.8 79.2586 198.6 79.2586 186.2C79.2586 170.6 81.5586 156 86.1586 142.4C90.9586 128.6 96.9586 116.1 104.159 104.9C111.559 93.5 119.759 83.5 128.759 74.9C137.759 66.1 146.559 59 155.159 53.6H187.559C176.159 61.8 165.959 69.8 156.959 77.6C148.159 85.4 140.359 93.6 133.559 102.2C126.759 110.6 121.059 119.7 116.459 129.5C111.859 139.1 108.059 150 105.059 162.2L106.559 162.8C111.559 154.2 118.159 147.1 126.359 141.5C134.559 135.7 145.159 132.8 158.159 132.8C167.359 132.8 175.759 134.3 183.359 137.3C190.959 140.3 197.559 144.6 203.159 150.2C208.759 155.8 213.059 162.6 216.059 170.6C219.259 178.6 220.859 187.5 220.859 197.3C220.859 207.5 219.159 216.9 215.759 225.5C212.359 233.9 207.559 241.2 201.359 247.4C195.359 253.4 187.959 258.1 179.159 261.5C170.559 264.9 160.959 266.6 150.359 266.6ZM150.059 245.3C164.459 245.3 175.559 241.4 183.359 233.6C191.359 225.8 195.359 214.8 195.359 200.6V198.2C195.359 184 191.359 173 183.359 165.2C175.559 157.4 164.459 153.5 150.059 153.5C135.659 153.5 124.459 157.4 116.459 165.2C108.659 173 104.759 184 104.759 198.2V200.6C104.759 214.8 108.659 225.8 116.459 233.6C124.459 241.4 135.659 245.3 150.059 245.3Z" fill="#0AFF99"/>
<path d="M120.659 261.2L119.073 264.872L119.108 264.888L119.144 264.902L120.659 261.2ZM98.1586 245.3L95.1216 247.903L95.1615 247.95L95.2028 247.995L98.1586 245.3ZM84.0586 219.8L80.2489 221.019L80.2599 221.053L80.2715 221.088L84.0586 219.8ZM86.1586 142.4L82.3806 141.086L82.375 141.102L82.3695 141.118L86.1586 142.4ZM104.159 104.9L100.803 102.722L100.799 102.73L100.794 102.737L104.159 104.9ZM128.759 74.9L131.522 77.792L131.539 77.7761L131.555 77.76L128.759 74.9ZM155.159 53.6V49.6H154.007L153.032 50.2124L155.159 53.6ZM187.559 53.6L189.894 56.8472L199.97 49.6H187.559V53.6ZM156.959 77.6L154.339 74.5772L154.322 74.5918L154.305 74.6066L156.959 77.6ZM133.559 102.2L136.668 104.717L136.682 104.699L136.696 104.681L133.559 102.2ZM116.459 129.5L120.066 131.228L120.073 131.214L120.08 131.2L116.459 129.5ZM105.059 162.2L101.174 161.245L100.344 164.622L103.573 165.914L105.059 162.2ZM106.559 162.8L105.073 166.514L108.28 167.797L110.017 164.81L106.559 162.8ZM126.359 141.5L128.614 144.803L128.642 144.785L128.668 144.766L126.359 141.5ZM183.359 137.3L184.827 133.579L184.827 133.579L183.359 137.3ZM203.159 150.2L205.987 147.372L205.987 147.372L203.159 150.2ZM216.059 170.6L212.313 172.004L212.329 172.045L212.345 172.086L216.059 170.6ZM215.759 225.5L219.466 227.001L219.472 226.986L219.478 226.971L215.759 225.5ZM201.359 247.4L198.53 244.572L198.53 244.572L201.359 247.4ZM179.159 261.5L177.717 257.769L177.702 257.774L177.688 257.78L179.159 261.5ZM183.359 233.6L180.566 230.736L180.548 230.754L180.53 230.772L183.359 233.6ZM183.359 165.2L180.53 168.028L180.548 168.046L180.566 168.064L183.359 165.2ZM116.459 165.2L113.666 162.336L113.648 162.354L113.63 162.372L116.459 165.2ZM116.459 233.6L113.63 236.428L113.648 236.446L113.666 236.464L116.459 233.6ZM150.359 262.6C139.797 262.6 130.423 260.873 122.173 257.498L119.144 264.902C128.494 268.727 138.92 270.6 150.359 270.6V262.6ZM122.244 257.528C113.943 253.943 106.916 248.968 101.114 242.605L95.2028 247.995C101.801 255.232 109.774 260.857 119.073 264.872L122.244 257.528ZM101.196 242.697C95.5718 236.136 91.1054 228.1 87.8457 218.512L80.2715 221.088C83.8118 231.5 88.7454 240.464 95.1216 247.903L101.196 242.697ZM87.8683 218.581C84.8148 209.039 83.2586 198.259 83.2586 186.2H75.2586C75.2586 198.941 76.9024 210.561 80.2489 221.019L87.8683 218.581ZM83.2586 186.2C83.2586 170.998 85.4989 156.835 89.9477 143.682L82.3695 141.118C77.6182 155.165 75.2586 170.202 75.2586 186.2H83.2586ZM89.9366 143.714C94.6428 130.184 100.51 117.973 107.523 107.063L100.794 102.737C93.4074 114.227 87.2744 127.016 82.3806 141.086L89.9366 143.714ZM107.514 107.078C114.76 95.9145 122.766 86.1591 131.522 77.792L125.995 72.008C116.751 80.8409 108.357 91.0855 100.803 102.722L107.514 107.078ZM131.555 77.76C140.398 69.1139 148.976 62.2051 157.286 56.9876L153.032 50.2124C144.141 55.7949 135.12 63.0861 125.962 72.04L131.555 77.76ZM155.159 57.6H187.559V49.6H155.159V57.6ZM185.223 50.3528C173.742 58.6112 163.445 66.6857 154.339 74.5772L159.578 80.6227C168.473 72.9143 178.576 64.9888 189.894 56.8472L185.223 50.3528ZM154.305 74.6066C145.342 82.5516 137.377 90.9215 130.421 99.7191L136.696 104.681C143.34 96.2785 150.975 88.2484 159.612 80.5934L154.305 74.6066ZM130.45 99.6832C123.446 108.334 117.574 117.709 112.838 127.8L120.08 131.2C124.543 121.691 130.071 112.866 136.668 104.717L130.45 99.6832ZM112.851 127.772C108.114 137.659 104.228 148.824 101.174 161.245L108.943 163.155C111.889 151.175 115.603 140.541 120.066 131.228L112.851 127.772ZM103.573 165.914L105.073 166.514L108.044 159.086L106.544 158.486L103.573 165.914ZM110.017 164.81C114.718 156.725 120.907 150.067 128.614 144.803L124.103 138.197C115.41 144.133 108.399 151.675 103.101 160.79L110.017 164.81ZM128.668 144.766C136.019 139.567 145.743 136.8 158.159 136.8V128.8C144.574 128.8 133.098 131.833 124.049 138.234L128.668 144.766ZM158.159 136.8C166.919 136.8 174.813 138.227 181.89 141.021L184.827 133.579C176.704 130.373 167.798 128.8 158.159 128.8V136.8ZM181.89 141.021C188.997 143.826 195.13 147.828 200.33 153.028L205.987 147.372C199.987 141.372 192.92 136.774 184.827 133.579L181.89 141.021ZM200.33 153.028C205.495 158.194 209.498 164.496 212.313 172.004L219.804 169.195C216.619 160.704 212.022 153.406 205.987 147.372L200.33 153.028ZM212.345 172.086C215.332 179.553 216.859 187.939 216.859 197.3H224.859C224.859 187.061 223.186 177.647 219.773 169.114L212.345 172.086ZM216.859 197.3C216.859 207.048 215.235 215.944 212.039 224.029L219.478 226.971C223.082 217.856 224.859 207.952 224.859 197.3H216.859ZM212.051 223.999C208.845 231.919 204.338 238.763 198.53 244.572L204.187 250.228C210.779 243.637 215.872 235.881 219.466 227.001L212.051 223.999ZM198.53 244.572C192.966 250.135 186.055 254.547 177.717 257.769L180.6 265.231C189.862 261.653 197.751 256.665 204.187 250.228L198.53 244.572ZM177.688 257.78C169.619 260.97 160.528 262.6 150.359 262.6V270.6C161.389 270.6 171.498 268.83 180.629 265.22L177.688 257.78ZM150.059 249.3C165.182 249.3 177.428 245.187 186.187 236.428L180.53 230.772C173.689 237.613 163.735 241.3 150.059 241.3V249.3ZM186.151 236.464C195.119 227.72 199.359 215.57 199.359 200.6H191.359C191.359 214.03 187.598 223.88 180.566 230.736L186.151 236.464ZM199.359 200.6V198.2H191.359V200.6H199.359ZM199.359 198.2C199.359 183.23 195.119 171.08 186.151 162.336L180.566 168.064C187.598 174.92 191.359 184.77 191.359 198.2H199.359ZM186.187 162.372C177.428 153.613 165.182 149.5 150.059 149.5V157.5C163.735 157.5 173.689 161.187 180.53 168.028L186.187 162.372ZM150.059 149.5C134.929 149.5 122.611 153.615 113.666 162.336L119.251 168.064C126.306 161.185 136.388 157.5 150.059 157.5V149.5ZM113.63 162.372C104.881 171.12 100.759 183.258 100.759 198.2H108.759C108.759 184.742 112.436 174.88 119.287 168.028L113.63 162.372ZM100.759 198.2V200.6H108.759V198.2H100.759ZM100.759 200.6C100.759 215.542 104.881 227.68 113.63 236.428L119.287 230.772C112.436 223.92 108.759 214.058 108.759 200.6H100.759ZM113.666 236.464C122.611 245.185 134.929 249.3 150.059 249.3V241.3C136.388 241.3 126.306 237.615 119.251 230.736L113.666 236.464Z" fill="black"/>
</svg>
