<svg width="300" height="390" viewBox="0 0 300 390" fill="none" xmlns="http://www.w3.org/2000/svg">
<rect x="6.25" y="56.25" width="287.5" height="287.5" fill="#C1C1C1" stroke="#828282" stroke-width="12.5"/>
<path d="M221.159 308H81.3586V282.2L151.259 219.2C161.459 210 169.859 200.6 176.459 191C183.059 181.2 186.359 170.9 186.359 160.1V156.5C186.359 143.9 183.059 134.2 176.459 127.4C169.859 120.4 160.059 116.9 147.059 116.9C134.259 116.9 124.359 120.2 117.359 126.8C110.559 133.2 105.459 141.8 102.059 152.6L79.5586 144.2C81.5586 138 84.2586 132 87.6586 126.2C91.2586 120.2 95.7586 114.9 101.159 110.3C106.559 105.7 113.059 102 120.659 99.2C128.459 96.4 137.459 95 147.659 95C158.059 95 167.259 96.5 175.259 99.5C183.459 102.5 190.259 106.7 195.659 112.1C201.259 117.5 205.459 123.9 208.259 131.3C211.259 138.7 212.759 146.8 212.759 155.6C212.759 163.6 211.559 171.1 209.159 178.1C206.959 185.1 203.759 191.8 199.559 198.2C195.559 204.6 190.659 210.9 184.859 217.1C179.259 223.1 172.959 229.1 165.959 235.1L107.459 286.1H221.159V308Z" fill="#FF8700"/>
<path d="M221.159 308V312H225.159V308H221.159ZM81.3586 308H77.3586V312H81.3586V308ZM81.3586 282.2L78.6806 279.229L77.3586 280.42V282.2H81.3586ZM151.259 219.2L153.937 222.171L153.938 222.17L151.259 219.2ZM176.459 191L179.755 193.266L179.766 193.25L179.776 193.234L176.459 191ZM176.459 127.4L173.548 130.144L173.568 130.165L173.588 130.186L176.459 127.4ZM117.359 126.8L120.1 129.713L120.103 129.71L117.359 126.8ZM102.059 152.6L100.66 156.347L104.608 157.822L105.874 153.801L102.059 152.6ZM79.5586 144.2L75.7518 142.972L74.5781 146.61L78.1596 147.947L79.5586 144.2ZM87.6586 126.2L84.2286 124.142L84.2181 124.16L84.2078 124.177L87.6586 126.2ZM101.159 110.3L103.752 113.345L103.752 113.345L101.159 110.3ZM120.659 99.2L119.307 95.4352L119.291 95.4408L119.276 95.4466L120.659 99.2ZM175.259 99.5L173.854 103.245L173.869 103.251L173.884 103.256L175.259 99.5ZM195.659 112.1L192.83 114.928L192.856 114.954L192.882 114.979L195.659 112.1ZM208.259 131.3L204.517 132.716L204.534 132.759L204.552 132.803L208.259 131.3ZM209.159 178.1L205.375 176.803L205.358 176.851L205.343 176.901L209.159 178.1ZM199.559 198.2L196.214 196.005L196.19 196.042L196.167 196.08L199.559 198.2ZM184.859 217.1L181.938 214.367L181.934 214.371L184.859 217.1ZM165.959 235.1L163.355 232.063L163.343 232.074L163.33 232.085L165.959 235.1ZM107.459 286.1L104.83 283.085L96.7833 290.1H107.459V286.1ZM221.159 286.1H225.159V282.1H221.159V286.1ZM221.159 304H81.3586V312H221.159V304ZM85.3586 308V282.2H77.3586V308H85.3586ZM84.0366 285.171L153.937 222.171L148.581 216.229L78.6806 279.229L84.0366 285.171ZM153.938 222.17C164.33 212.797 172.949 203.165 179.755 193.266L173.162 188.734C166.768 198.035 158.587 207.203 148.58 216.23L153.938 222.17ZM179.776 193.234C186.777 182.839 190.359 171.771 190.359 160.1H182.359C182.359 170.029 179.34 179.561 173.141 188.766L179.776 193.234ZM190.359 160.1V156.5H182.359V160.1H190.359ZM190.359 156.5C190.359 143.213 186.867 132.38 179.329 124.614L173.588 130.186C179.25 136.02 182.359 144.587 182.359 156.5H190.359ZM179.369 124.656C171.776 116.603 160.759 112.9 147.059 112.9V120.9C159.358 120.9 167.941 124.197 173.548 130.144L179.369 124.656ZM147.059 112.9C133.584 112.9 122.575 116.384 114.615 123.89L120.103 129.71C126.142 124.016 134.933 120.9 147.059 120.9V112.9ZM114.617 123.887C107.223 130.847 101.805 140.084 98.2432 151.399L105.874 153.801C109.112 143.516 113.894 135.553 120.1 129.713L114.617 123.887ZM103.458 148.853L80.9576 140.453L78.1596 147.947L100.66 156.347L103.458 148.853ZM83.3654 145.428C85.2732 139.514 87.8519 133.78 91.1094 128.223L84.2078 124.177C80.6653 130.22 77.844 136.486 75.7518 142.972L83.3654 145.428ZM91.0886 128.258C94.4622 122.635 98.6782 117.667 103.752 113.345L98.5647 107.255C92.839 112.133 88.055 117.765 84.2286 124.142L91.0886 128.258ZM103.752 113.345C108.747 109.091 114.822 105.613 122.041 102.953L119.276 95.4466C111.295 98.3867 104.371 102.309 98.5647 107.255L103.752 113.345ZM122.01 102.965C129.289 100.352 137.817 99 147.659 99V91C137.1 91 127.628 92.4483 119.307 95.4352L122.01 102.965ZM147.659 99C157.68 99 166.389 100.446 173.854 103.245L176.663 95.7547C168.128 92.5541 158.437 91 147.659 91V99ZM173.884 103.256C181.616 106.085 187.897 109.995 192.83 114.928L198.487 109.272C192.62 103.405 185.301 98.9148 176.633 95.7435L173.884 103.256ZM192.882 114.979C198.049 119.962 201.923 125.859 204.517 132.716L212 129.884C208.994 121.941 204.468 115.038 198.435 109.221L192.882 114.979ZM204.552 132.803C207.339 139.679 208.759 147.262 208.759 155.6H216.759C216.759 146.338 215.178 137.721 211.966 129.797L204.552 132.803ZM208.759 155.6C208.759 163.194 207.62 170.253 205.375 176.803L212.942 179.397C215.497 171.947 216.759 164.006 216.759 155.6H208.759ZM205.343 176.901C203.258 183.534 200.221 189.9 196.214 196.005L202.903 200.395C207.296 193.7 210.659 186.666 212.975 179.299L205.343 176.901ZM196.167 196.08C192.319 202.236 187.583 208.333 181.938 214.367L187.78 219.833C193.735 213.467 198.798 206.964 202.951 200.32L196.167 196.08ZM181.934 214.371C176.447 220.25 170.256 226.148 163.355 232.063L168.562 238.137C175.661 232.052 182.07 225.95 187.783 219.829L181.934 214.371ZM163.33 232.085L104.83 283.085L110.087 289.115L168.587 238.115L163.33 232.085ZM107.459 290.1H221.159V282.1H107.459V290.1ZM217.159 286.1V308H225.159V286.1H217.159Z" fill="black"/>
</svg>
