<svg width="300" height="300" viewBox="0 0 300 300" fill="none" xmlns="http://www.w3.org/2000/svg">
<rect x="6.25" y="6.25" width="287.5" height="287.5" fill="#C1C1C1" stroke="#828282" stroke-width="12.5"/>
<path d="M210.359 75.5H116.759L110.759 155.6H112.859C118.059 148.6 123.859 143.1 130.259 139.1C136.659 134.9 145.459 132.8 156.659 132.8C165.859 132.8 174.259 134.3 181.859 137.3C189.659 140.1 196.359 144.3 201.959 149.9C207.559 155.5 211.959 162.3 215.159 170.3C218.359 178.1 219.959 187.1 219.959 197.3C219.959 207.5 218.359 216.9 215.159 225.5C211.959 233.9 207.259 241.2 201.059 247.4C194.859 253.4 187.359 258.1 178.559 261.5C169.759 264.9 159.759 266.6 148.559 266.6C139.759 266.6 131.859 265.6 124.859 263.6C118.059 261.6 111.959 258.9 106.559 255.5C101.359 252.1 96.7586 248.3 92.7586 244.1C88.7586 239.9 85.1586 235.5 81.9586 230.9L100.859 216.5C103.659 220.7 106.459 224.5 109.259 227.9C112.259 231.3 115.659 234.3 119.459 236.9C123.259 239.3 127.559 241.2 132.359 242.6C137.159 244 142.759 244.7 149.159 244.7C163.559 244.7 174.559 240.8 182.159 233C189.959 225.2 193.859 214.4 193.859 200.6V198.2C193.859 184.4 189.959 173.6 182.159 165.8C174.359 158 163.159 154.1 148.559 154.1C138.559 154.1 130.759 155.8 125.159 159.2C119.759 162.6 114.759 166.8 110.159 171.8L88.8586 168.8L96.3586 53.6H210.359V75.5Z" fill="#A1FF0A"/>
<path d="M210.359 75.5V79.5H214.359V75.5H210.359ZM116.759 75.5V71.5H113.047L112.77 75.2012L116.759 75.5ZM110.759 155.6L106.77 155.301L106.448 159.6H110.759V155.6ZM112.859 155.6V159.6H114.87L116.07 157.985L112.859 155.6ZM130.259 139.1L132.379 142.492L132.416 142.469L132.453 142.444L130.259 139.1ZM181.859 137.3L180.39 141.021L180.448 141.044L180.507 141.065L181.859 137.3ZM201.959 149.9L199.13 152.728L199.13 152.728L201.959 149.9ZM215.159 170.3L211.445 171.786L211.451 171.802L211.458 171.818L215.159 170.3ZM215.159 225.5L218.897 226.924L218.902 226.909L218.907 226.895L215.159 225.5ZM201.059 247.4L203.84 250.274L203.864 250.252L203.887 250.228L201.059 247.4ZM178.559 261.5L180 265.231L180 265.231L178.559 261.5ZM124.859 263.6L123.73 267.437L123.745 267.442L123.76 267.446L124.859 263.6ZM106.559 255.5L104.37 258.848L104.398 258.867L104.427 258.885L106.559 255.5ZM92.7586 244.1L89.862 246.859L89.862 246.859L92.7586 244.1ZM81.9586 230.9L79.5344 227.718L76.4875 230.04L78.675 233.184L81.9586 230.9ZM100.859 216.5L104.187 214.281L101.823 210.736L98.4344 213.318L100.859 216.5ZM109.259 227.9L106.171 230.443L106.214 230.495L106.259 230.546L109.259 227.9ZM119.459 236.9L117.2 240.201L117.261 240.243L117.323 240.282L119.459 236.9ZM182.159 233L179.33 230.172L179.312 230.19L179.294 230.209L182.159 233ZM182.159 165.8L179.33 168.628L179.33 168.628L182.159 165.8ZM125.159 159.2L123.083 155.781L123.055 155.798L123.027 155.815L125.159 159.2ZM110.159 171.8L109.601 175.761L111.68 176.054L113.102 174.508L110.159 171.8ZM88.8586 168.8L84.867 168.54L84.626 172.243L88.3007 172.761L88.8586 168.8ZM96.3586 53.6V49.6H92.6105L92.367 53.3401L96.3586 53.6ZM210.359 53.6H214.359V49.6H210.359V53.6ZM210.359 71.5H116.759V79.5H210.359V71.5ZM112.77 75.2012L106.77 155.301L114.747 155.899L120.747 75.7988L112.77 75.2012ZM110.759 159.6H112.859V151.6H110.759V159.6ZM116.07 157.985C121.018 151.325 126.462 146.19 132.379 142.492L128.139 135.708C121.255 140.01 115.1 145.875 109.648 153.215L116.07 157.985ZM132.453 142.444C137.965 138.827 145.897 136.8 156.659 136.8V128.8C145.02 128.8 135.352 130.973 128.064 135.756L132.453 142.444ZM156.659 136.8C165.419 136.8 173.313 138.227 180.39 141.021L183.327 133.579C175.204 130.373 166.298 128.8 156.659 128.8V136.8ZM180.507 141.065C187.778 143.675 193.967 147.565 199.13 152.728L204.787 147.072C198.75 141.035 191.539 136.525 183.21 133.535L180.507 141.065ZM199.13 152.728C204.315 157.913 208.428 164.244 211.445 171.786L218.873 168.814C215.489 160.356 210.803 153.087 204.787 147.072L199.13 152.728ZM211.458 171.818C214.423 179.047 215.959 187.514 215.959 197.3H223.959C223.959 186.686 222.294 177.153 218.859 168.782L211.458 171.818ZM215.959 197.3C215.959 207.077 214.426 215.998 211.41 224.105L218.907 226.895C222.291 217.802 223.959 207.923 223.959 197.3H215.959ZM211.421 224.076C208.416 231.963 204.021 238.781 198.23 244.572L203.887 250.228C210.496 243.619 215.501 235.837 218.897 226.924L211.421 224.076ZM198.277 244.526C192.496 250.12 185.464 254.544 177.117 257.769L180 265.231C189.253 261.656 197.221 256.68 203.84 250.274L198.277 244.526ZM177.117 257.769C168.854 260.961 159.356 262.6 148.559 262.6V270.6C160.161 270.6 170.663 268.839 180 265.231L177.117 257.769ZM148.559 262.6C140.056 262.6 132.535 261.633 125.957 259.754L123.76 267.446C131.182 269.567 139.462 270.6 148.559 270.6V262.6ZM125.987 259.763C119.502 257.855 113.746 255.298 108.69 252.115L104.427 258.885C110.171 262.502 116.615 265.345 123.73 267.437L125.987 259.763ZM108.748 252.152C103.787 248.909 99.4283 245.303 95.6551 241.341L89.862 246.859C94.0889 251.297 98.9301 255.291 104.37 258.848L108.748 252.152ZM95.6551 241.341C91.7912 237.284 88.3215 233.042 85.2422 228.616L78.675 233.184C81.9957 237.958 85.726 242.516 89.862 246.859L95.6551 241.341ZM84.3828 234.082L103.283 219.682L98.4344 213.318L79.5344 227.718L84.3828 234.082ZM97.5304 218.719C100.395 223.015 103.274 226.925 106.171 230.443L112.346 225.357C109.643 222.075 106.923 218.385 104.187 214.281L97.5304 218.719ZM106.259 230.546C109.481 234.198 113.131 237.417 117.2 240.201L121.717 233.599C118.186 231.183 115.036 228.402 112.258 225.254L106.259 230.546ZM117.323 240.282C121.471 242.902 126.12 244.947 131.239 246.44L133.479 238.76C128.997 237.453 125.046 235.698 121.595 233.518L117.323 240.282ZM131.239 246.44C136.488 247.971 142.48 248.7 149.159 248.7V240.7C143.037 240.7 137.83 240.029 133.479 238.76L131.239 246.44ZM149.159 248.7C164.276 248.7 176.451 244.59 185.024 235.791L179.294 230.209C172.666 237.01 162.841 240.7 149.159 240.7V248.7ZM184.987 235.828C193.715 227.1 197.859 215.18 197.859 200.6H189.859C189.859 213.62 186.202 223.3 179.33 230.172L184.987 235.828ZM197.859 200.6V198.2H189.859V200.6H197.859ZM197.859 198.2C197.859 183.62 193.715 171.7 184.987 162.972L179.33 168.628C186.202 175.5 189.859 185.18 189.859 198.2H197.859ZM184.987 162.972C176.218 154.203 163.864 150.1 148.559 150.1V158.1C162.453 158.1 172.499 161.797 179.33 168.628L184.987 162.972ZM148.559 150.1C138.182 150.1 129.555 151.851 123.083 155.781L127.235 162.619C131.962 159.749 138.935 158.1 148.559 158.1V150.1ZM123.027 155.815C117.309 159.415 112.039 163.848 107.215 169.092L113.102 174.508C117.478 169.752 122.208 165.785 127.29 162.585L123.027 155.815ZM110.716 167.839L89.4165 164.839L88.3007 172.761L109.601 175.761L110.716 167.839ZM92.8501 169.06L100.35 53.8599L92.367 53.3401L84.867 168.54L92.8501 169.06ZM96.3586 57.6H210.359V49.6H96.3586V57.6ZM206.359 53.6V75.5H214.359V53.6H206.359Z" fill="black"/>
</svg>
