<svg width="300" height="390" viewBox="0 0 300 390" fill="none" xmlns="http://www.w3.org/2000/svg">
<rect x="6.25" y="56.25" width="287.5" height="287.5" fill="#C1C1C1" stroke="#828282" stroke-width="12.5"/>
<path d="M111.959 308L193.859 120.2H102.059V159.2H79.5586V98.6H219.359V120.8L138.959 308H111.959Z" fill="#0AEFFF"/>
<path d="M111.959 308L108.292 306.401L105.85 312H111.959V308ZM193.859 120.2L197.525 121.799L199.967 116.2H193.859V120.2ZM102.059 120.2V116.2H98.0586V120.2H102.059ZM102.059 159.2V163.2H106.059V159.2H102.059ZM79.5586 159.2H75.5586V163.2H79.5586V159.2ZM79.5586 98.6V94.6H75.5586V98.6H79.5586ZM219.359 98.6H223.359V94.6H219.359V98.6ZM219.359 120.8L223.034 122.379L223.359 121.623V120.8H219.359ZM138.959 308V312H141.594L142.634 309.579L138.959 308ZM115.625 309.599L197.525 121.799L190.192 118.601L108.292 306.401L115.625 309.599ZM193.859 116.2H102.059V124.2H193.859V116.2ZM98.0586 120.2V159.2H106.059V120.2H98.0586ZM102.059 155.2H79.5586V163.2H102.059V155.2ZM83.5586 159.2V98.6H75.5586V159.2H83.5586ZM79.5586 102.6H219.359V94.6H79.5586V102.6ZM215.359 98.6V120.8H223.359V98.6H215.359ZM215.683 119.221L135.283 306.421L142.634 309.579L223.034 122.379L215.683 119.221ZM138.959 304H111.959V312H138.959V304Z" fill="black"/>
</svg>
