<svg width="300" height="390" viewBox="0 0 300 390" fill="none" xmlns="http://www.w3.org/2000/svg">
<rect x="6.25" y="56.25" width="287.5" height="287.5" fill="#C1C1C1" stroke="#828282" stroke-width="12.5"/>
<path d="M210.359 120.5H116.759L110.759 200.6H112.859C118.059 193.6 123.859 188.1 130.259 184.1C136.659 179.9 145.459 177.8 156.659 177.8C165.859 177.8 174.259 179.3 181.859 182.3C189.659 185.1 196.359 189.3 201.959 194.9C207.559 200.5 211.959 207.3 215.159 215.3C218.359 223.1 219.959 232.1 219.959 242.3C219.959 252.5 218.359 261.9 215.159 270.5C211.959 278.9 207.259 286.2 201.059 292.4C194.859 298.4 187.359 303.1 178.559 306.5C169.759 309.9 159.759 311.6 148.559 311.6C139.759 311.6 131.859 310.6 124.859 308.6C118.059 306.6 111.959 303.9 106.559 300.5C101.359 297.1 96.7586 293.3 92.7586 289.1C88.7586 284.9 85.1586 280.5 81.9586 275.9L100.859 261.5C103.659 265.7 106.459 269.5 109.259 272.9C112.259 276.3 115.659 279.3 119.459 281.9C123.259 284.3 127.559 286.2 132.359 287.6C137.159 289 142.759 289.7 149.159 289.7C163.559 289.7 174.559 285.8 182.159 278C189.959 270.2 193.859 259.4 193.859 245.6V243.2C193.859 229.4 189.959 218.6 182.159 210.8C174.359 203 163.159 199.1 148.559 199.1C138.559 199.1 130.759 200.8 125.159 204.2C119.759 207.6 114.759 211.8 110.159 216.8L88.8586 213.8L96.3586 98.6H210.359V120.5Z" fill="#A1FF0A"/>
<path d="M210.359 120.5V124.5H214.359V120.5H210.359ZM116.759 120.5V116.5H113.047L112.77 120.201L116.759 120.5ZM110.759 200.6L106.77 200.301L106.448 204.6H110.759V200.6ZM112.859 200.6V204.6H114.87L116.07 202.985L112.859 200.6ZM130.259 184.1L132.379 187.492L132.416 187.469L132.453 187.444L130.259 184.1ZM181.859 182.3L180.39 186.021L180.448 186.044L180.507 186.065L181.859 182.3ZM201.959 194.9L199.13 197.728L199.13 197.728L201.959 194.9ZM215.159 215.3L211.445 216.786L211.451 216.802L211.458 216.818L215.159 215.3ZM215.159 270.5L218.897 271.924L218.902 271.909L218.907 271.895L215.159 270.5ZM201.059 292.4L203.84 295.274L203.864 295.252L203.887 295.228L201.059 292.4ZM178.559 306.5L180 310.231L180 310.231L178.559 306.5ZM124.859 308.6L123.73 312.437L123.745 312.442L123.76 312.446L124.859 308.6ZM106.559 300.5L104.37 303.848L104.398 303.867L104.427 303.885L106.559 300.5ZM92.7586 289.1L89.862 291.859L89.862 291.859L92.7586 289.1ZM81.9586 275.9L79.5344 272.718L76.4875 275.04L78.675 278.184L81.9586 275.9ZM100.859 261.5L104.187 259.281L101.823 255.736L98.4344 258.318L100.859 261.5ZM109.259 272.9L106.171 275.443L106.214 275.495L106.259 275.546L109.259 272.9ZM119.459 281.9L117.2 285.201L117.261 285.243L117.323 285.282L119.459 281.9ZM182.159 278L179.33 275.172L179.312 275.19L179.294 275.209L182.159 278ZM182.159 210.8L179.33 213.628L179.33 213.628L182.159 210.8ZM125.159 204.2L123.083 200.781L123.055 200.798L123.027 200.815L125.159 204.2ZM110.159 216.8L109.601 220.761L111.68 221.054L113.102 219.508L110.159 216.8ZM88.8586 213.8L84.867 213.54L84.626 217.243L88.3007 217.761L88.8586 213.8ZM96.3586 98.6V94.6H92.6105L92.367 98.3401L96.3586 98.6ZM210.359 98.6H214.359V94.6H210.359V98.6ZM210.359 116.5H116.759V124.5H210.359V116.5ZM112.77 120.201L106.77 200.301L114.747 200.899L120.747 120.799L112.77 120.201ZM110.759 204.6H112.859V196.6H110.759V204.6ZM116.07 202.985C121.018 196.325 126.462 191.19 132.379 187.492L128.139 180.708C121.255 185.01 115.1 190.875 109.648 198.215L116.07 202.985ZM132.453 187.444C137.965 183.827 145.897 181.8 156.659 181.8V173.8C145.02 173.8 135.352 175.973 128.064 180.756L132.453 187.444ZM156.659 181.8C165.419 181.8 173.313 183.227 180.39 186.021L183.327 178.579C175.204 175.373 166.298 173.8 156.659 173.8V181.8ZM180.507 186.065C187.778 188.675 193.967 192.565 199.13 197.728L204.787 192.072C198.75 186.035 191.539 181.525 183.21 178.535L180.507 186.065ZM199.13 197.728C204.315 202.913 208.428 209.244 211.445 216.786L218.873 213.814C215.489 205.356 210.803 198.087 204.787 192.072L199.13 197.728ZM211.458 216.818C214.423 224.047 215.959 232.514 215.959 242.3H223.959C223.959 231.686 222.294 222.153 218.859 213.782L211.458 216.818ZM215.959 242.3C215.959 252.077 214.426 260.998 211.41 269.105L218.907 271.895C222.291 262.802 223.959 252.923 223.959 242.3H215.959ZM211.421 269.076C208.416 276.963 204.021 283.781 198.23 289.572L203.887 295.228C210.496 288.619 215.501 280.837 218.897 271.924L211.421 269.076ZM198.277 289.526C192.496 295.12 185.464 299.544 177.117 302.769L180 310.231C189.253 306.656 197.221 301.68 203.84 295.274L198.277 289.526ZM177.117 302.769C168.854 305.961 159.356 307.6 148.559 307.6V315.6C160.161 315.6 170.663 313.839 180 310.231L177.117 302.769ZM148.559 307.6C140.056 307.6 132.535 306.633 125.957 304.754L123.76 312.446C131.182 314.567 139.462 315.6 148.559 315.6V307.6ZM125.987 304.763C119.502 302.855 113.746 300.298 108.69 297.115L104.427 303.885C110.171 307.502 116.615 310.345 123.73 312.437L125.987 304.763ZM108.748 297.152C103.787 293.909 99.4283 290.303 95.6551 286.341L89.862 291.859C94.0889 296.297 98.9301 300.291 104.37 303.848L108.748 297.152ZM95.6551 286.341C91.7912 282.284 88.3215 278.042 85.2422 273.616L78.675 278.184C81.9957 282.958 85.726 287.516 89.862 291.859L95.6551 286.341ZM84.3828 279.082L103.283 264.682L98.4344 258.318L79.5344 272.718L84.3828 279.082ZM97.5304 263.719C100.395 268.015 103.274 271.925 106.171 275.443L112.346 270.357C109.643 267.075 106.923 263.385 104.187 259.281L97.5304 263.719ZM106.259 275.546C109.481 279.198 113.131 282.417 117.2 285.201L121.717 278.599C118.186 276.183 115.036 273.402 112.258 270.254L106.259 275.546ZM117.323 285.282C121.471 287.902 126.12 289.947 131.239 291.44L133.479 283.76C128.997 282.453 125.046 280.698 121.595 278.518L117.323 285.282ZM131.239 291.44C136.488 292.971 142.48 293.7 149.159 293.7V285.7C143.037 285.7 137.83 285.029 133.479 283.76L131.239 291.44ZM149.159 293.7C164.276 293.7 176.451 289.59 185.024 280.791L179.294 275.209C172.666 282.01 162.841 285.7 149.159 285.7V293.7ZM184.987 280.828C193.715 272.1 197.859 260.18 197.859 245.6H189.859C189.859 258.62 186.202 268.3 179.33 275.172L184.987 280.828ZM197.859 245.6V243.2H189.859V245.6H197.859ZM197.859 243.2C197.859 228.62 193.715 216.7 184.987 207.972L179.33 213.628C186.202 220.5 189.859 230.18 189.859 243.2H197.859ZM184.987 207.972C176.218 199.203 163.864 195.1 148.559 195.1V203.1C162.453 203.1 172.499 206.797 179.33 213.628L184.987 207.972ZM148.559 195.1C138.182 195.1 129.555 196.851 123.083 200.781L127.235 207.619C131.962 204.749 138.935 203.1 148.559 203.1V195.1ZM123.027 200.815C117.309 204.415 112.039 208.848 107.215 214.092L113.102 219.508C117.478 214.752 122.208 210.785 127.29 207.585L123.027 200.815ZM110.716 212.839L89.4165 209.839L88.3007 217.761L109.601 220.761L110.716 212.839ZM92.8501 214.06L100.35 98.8599L92.367 98.3401L84.867 213.54L92.8501 214.06ZM96.3586 102.6H210.359V94.6H96.3586V102.6ZM206.359 98.6V120.5H214.359V98.6H206.359Z" fill="black"/>
</svg>
