<svg width="300" height="300" viewBox="0 0 300 300" fill="none" xmlns="http://www.w3.org/2000/svg">
<rect x="6.25" y="6.25" width="287.5" height="287.5" fill="#C1C1C1" stroke="#828282" stroke-width="12.5"/>
<path d="M173.459 263V221.9H70.2586V199.7L160.859 53.6H197.459V201.2H228.659V221.9H197.459V263H173.459ZM92.7586 201.2H173.459V73.1H172.259L92.7586 201.2Z" fill="#DEFF0A"/>
<path d="M173.459 263H169.459V267H173.459V263ZM173.459 221.9H177.459V217.9H173.459V221.9ZM70.2586 221.9H66.2586V225.9H70.2586V221.9ZM70.2586 199.7L66.8592 197.592L66.2586 198.56V199.7H70.2586ZM160.859 53.6V49.6H158.632L157.459 51.4919L160.859 53.6ZM197.459 53.6H201.459V49.6H197.459V53.6ZM197.459 201.2H193.459V205.2H197.459V201.2ZM228.659 201.2H232.659V197.2H228.659V201.2ZM228.659 221.9V225.9H232.659V221.9H228.659ZM197.459 221.9V217.9H193.459V221.9H197.459ZM197.459 263V267H201.459V263H197.459ZM92.7586 201.2L89.3599 199.091L85.5685 205.2H92.7586V201.2ZM173.459 201.2V205.2H177.459V201.2H173.459ZM173.459 73.1H177.459V69.1H173.459V73.1ZM172.259 73.1V69.1H170.033L168.86 70.9907L172.259 73.1ZM177.459 263V221.9H169.459V263H177.459ZM173.459 217.9H70.2586V225.9H173.459V217.9ZM74.2586 221.9V199.7H66.2586V221.9H74.2586ZM73.658 201.808L164.258 55.7081L157.459 51.4919L66.8592 197.592L73.658 201.808ZM160.859 57.6H197.459V49.6H160.859V57.6ZM193.459 53.6V201.2H201.459V53.6H193.459ZM197.459 205.2H228.659V197.2H197.459V205.2ZM224.659 201.2V221.9H232.659V201.2H224.659ZM228.659 217.9H197.459V225.9H228.659V217.9ZM193.459 221.9V263H201.459V221.9H193.459ZM197.459 259H173.459V267H197.459V259ZM92.7586 205.2H173.459V197.2H92.7586V205.2ZM177.459 201.2V73.1H169.459V201.2H177.459ZM173.459 69.1H172.259V77.1H173.459V69.1ZM168.86 70.9907L89.3599 199.091L96.1573 203.309L175.657 75.2092L168.86 70.9907Z" fill="black"/>
</svg>
