<svg width="300" height="300" viewBox="0 0 300 300" fill="none" xmlns="http://www.w3.org/2000/svg">
<rect x="6.25" y="6.25" width="287.5" height="287.5" fill="#C1C1C1" stroke="#828282" stroke-width="12.5"/>
<path d="M209.299 244H92.7988V222.5L151.049 170C159.549 162.333 166.549 154.5 172.049 146.5C177.549 138.333 180.299 129.75 180.299 120.75V117.75C180.299 107.25 177.549 99.1667 172.049 93.5C166.549 87.6667 158.382 84.75 147.549 84.75C136.882 84.75 128.632 87.5 122.799 93C117.132 98.3333 112.882 105.5 110.049 114.5L91.2988 107.5C92.9655 102.333 95.2155 97.3333 98.0488 92.5C101.049 87.5 104.799 83.0833 109.299 79.25C113.799 75.4167 119.215 72.3333 125.549 70C132.049 67.6667 139.549 66.5 148.049 66.5C156.715 66.5 164.382 67.75 171.049 70.25C177.882 72.75 183.549 76.25 188.049 80.75C192.715 85.25 196.215 90.5833 198.549 96.75C201.049 102.917 202.299 109.667 202.299 117C202.299 123.667 201.299 129.917 199.299 135.75C197.466 141.583 194.799 147.167 191.299 152.5C187.966 157.833 183.882 163.083 179.049 168.25C174.382 173.25 169.132 178.25 163.299 183.25L114.549 225.75H209.299V244Z" fill="#FF8700"/>
</svg>
