<svg width="300" height="390" viewBox="0 0 300 390" fill="none" xmlns="http://www.w3.org/2000/svg">
<path d="M0 50H300V350H0V50Z" fill="#C1C1C1"/>
<path fill-rule="evenodd" clip-rule="evenodd" d="M287.5 62.5H12.5V337.5H287.5V62.5ZM0 50V350H300V50H0Z" fill="#828282"/>
<path d="M85.5586 308V286.1H145.559V117.2H143.459L90.6586 166.4L75.9586 150.5L131.459 98.6H170.759V286.1H225.959V308H85.5586Z" fill="#FF0000"/>
<path d="M85.5586 308H81.5586V312H85.5586V308ZM85.5586 286.1V282.1H81.5586V286.1H85.5586ZM145.559 286.1V290.1H149.559V286.1H145.559ZM145.559 117.2H149.559V113.2H145.559V117.2ZM143.459 117.2V113.2H141.884L140.732 114.274L143.459 117.2ZM90.6586 166.4L87.7215 169.115L90.4476 172.064L93.3855 169.326L90.6586 166.4ZM75.9586 150.5L73.2265 147.578L70.3215 150.295L73.0215 153.215L75.9586 150.5ZM131.459 98.6V94.6H129.88L128.727 95.6784L131.459 98.6ZM170.759 98.6H174.759V94.6H170.759V98.6ZM170.759 286.1H166.759V290.1H170.759V286.1ZM225.959 286.1H229.959V282.1H225.959V286.1ZM225.959 308V312H229.959V308H225.959ZM89.5586 308V286.1H81.5586V308H89.5586ZM85.5586 290.1H145.559V282.1H85.5586V290.1ZM149.559 286.1V117.2H141.559V286.1H149.559ZM145.559 113.2H143.459V121.2H145.559V113.2ZM140.732 114.274L87.9317 163.474L93.3855 169.326L146.186 120.126L140.732 114.274ZM93.5957 163.685L78.8957 147.785L73.0215 153.215L87.7215 169.115L93.5957 163.685ZM78.6907 153.422L134.191 101.522L128.727 95.6784L73.2265 147.578L78.6907 153.422ZM131.459 102.6H170.759V94.6H131.459V102.6ZM166.759 98.6V286.1H174.759V98.6H166.759ZM170.759 290.1H225.959V282.1H170.759V290.1ZM221.959 286.1V308H229.959V286.1H221.959ZM225.959 304H85.5586V312H225.959V304Z" fill="black"/>
</svg>
