<svg width="300" height="300" viewBox="0 0 300 300" fill="none" xmlns="http://www.w3.org/2000/svg">
<rect x="6.25" y="6.25" width="287.5" height="287.5" fill="#C1C1C1" stroke="#828282" stroke-width="12.5"/>
<path d="M200.299 87.75H122.299L117.299 154.5H119.049C123.382 148.667 128.215 144.083 133.549 140.75C138.882 137.25 146.215 135.5 155.549 135.5C163.216 135.5 170.216 136.75 176.549 139.25C183.049 141.583 188.632 145.083 193.299 149.75C197.966 154.417 201.632 160.083 204.299 166.75C206.966 173.25 208.299 180.75 208.299 189.25C208.299 197.75 206.966 205.583 204.299 212.75C201.632 219.75 197.716 225.833 192.549 231C187.382 236 181.132 239.917 173.799 242.75C166.465 245.583 158.132 247 148.799 247C141.465 247 134.882 246.167 129.049 244.5C123.382 242.833 118.299 240.583 113.799 237.75C109.465 234.917 105.632 231.75 102.299 228.25C98.9655 224.75 95.9655 221.083 93.2988 217.25L109.049 205.25C111.382 208.75 113.715 211.917 116.049 214.75C118.549 217.583 121.382 220.083 124.549 222.25C127.715 224.25 131.299 225.833 135.299 227C139.299 228.167 143.965 228.75 149.299 228.75C161.299 228.75 170.465 225.5 176.799 219C183.299 212.5 186.549 203.5 186.549 192V190C186.549 178.5 183.299 169.5 176.799 163C170.299 156.5 160.966 153.25 148.799 153.25C140.465 153.25 133.965 154.667 129.299 157.5C124.799 160.333 120.632 163.833 116.799 168L99.0488 165.5L105.299 69.5H200.299V87.75Z" fill="#A1FF0A"/>
</svg>
