<svg width="300" height="390" viewBox="0 0 300 390" fill="none" xmlns="http://www.w3.org/2000/svg">
<rect x="6.25" y="56.25" width="287.5" height="287.5" fill="#C1C1C1" stroke="#828282" stroke-width="12.5"/>
<path d="M150.359 311.6C139.359 311.6 129.459 309.8 120.659 306.2C111.859 302.4 104.359 297.1 98.1586 290.3C92.1586 283.3 87.4586 274.8 84.0586 264.8C80.8586 254.8 79.2586 243.6 79.2586 231.2C79.2586 215.6 81.5586 201 86.1586 187.4C90.9586 173.6 96.9586 161.1 104.159 149.9C111.559 138.5 119.759 128.5 128.759 119.9C137.759 111.1 146.559 104 155.159 98.6H187.559C176.159 106.8 165.959 114.8 156.959 122.6C148.159 130.4 140.359 138.6 133.559 147.2C126.759 155.6 121.059 164.7 116.459 174.5C111.859 184.1 108.059 195 105.059 207.2L106.559 207.8C111.559 199.2 118.159 192.1 126.359 186.5C134.559 180.7 145.159 177.8 158.159 177.8C167.359 177.8 175.759 179.3 183.359 182.3C190.959 185.3 197.559 189.6 203.159 195.2C208.759 200.8 213.059 207.6 216.059 215.6C219.259 223.6 220.859 232.5 220.859 242.3C220.859 252.5 219.159 261.9 215.759 270.5C212.359 278.9 207.559 286.2 201.359 292.4C195.359 298.4 187.959 303.1 179.159 306.5C170.559 309.9 160.959 311.6 150.359 311.6ZM150.059 290.3C164.459 290.3 175.559 286.4 183.359 278.6C191.359 270.8 195.359 259.8 195.359 245.6V243.2C195.359 229 191.359 218 183.359 210.2C175.559 202.4 164.459 198.5 150.059 198.5C135.659 198.5 124.459 202.4 116.459 210.2C108.659 218 104.759 229 104.759 243.2V245.6C104.759 259.8 108.659 270.8 116.459 278.6C124.459 286.4 135.659 290.3 150.059 290.3Z" fill="#0AFF99"/>
<path d="M120.659 306.2L119.073 309.872L119.108 309.888L119.144 309.902L120.659 306.2ZM98.1586 290.3L95.1216 292.903L95.1615 292.95L95.2028 292.995L98.1586 290.3ZM84.0586 264.8L80.2489 266.019L80.2599 266.053L80.2715 266.088L84.0586 264.8ZM86.1586 187.4L82.3806 186.086L82.375 186.102L82.3695 186.118L86.1586 187.4ZM104.159 149.9L100.803 147.722L100.799 147.73L100.794 147.737L104.159 149.9ZM128.759 119.9L131.522 122.792L131.539 122.776L131.555 122.76L128.759 119.9ZM155.159 98.6V94.6H154.007L153.032 95.2124L155.159 98.6ZM187.559 98.6L189.894 101.847L199.97 94.6H187.559V98.6ZM156.959 122.6L154.339 119.577L154.322 119.592L154.305 119.607L156.959 122.6ZM133.559 147.2L136.668 149.717L136.682 149.699L136.696 149.681L133.559 147.2ZM116.459 174.5L120.066 176.228L120.073 176.214L120.08 176.2L116.459 174.5ZM105.059 207.2L101.174 206.245L100.344 209.622L103.573 210.914L105.059 207.2ZM106.559 207.8L105.073 211.514L108.28 212.797L110.017 209.81L106.559 207.8ZM126.359 186.5L128.614 189.803L128.642 189.785L128.668 189.766L126.359 186.5ZM183.359 182.3L184.827 178.579L184.827 178.579L183.359 182.3ZM203.159 195.2L205.987 192.372L205.987 192.372L203.159 195.2ZM216.059 215.6L212.313 217.004L212.329 217.045L212.345 217.086L216.059 215.6ZM215.759 270.5L219.466 272.001L219.472 271.986L219.478 271.971L215.759 270.5ZM201.359 292.4L198.53 289.572L198.53 289.572L201.359 292.4ZM179.159 306.5L177.717 302.769L177.702 302.774L177.688 302.78L179.159 306.5ZM183.359 278.6L180.566 275.736L180.548 275.754L180.53 275.772L183.359 278.6ZM183.359 210.2L180.53 213.028L180.548 213.046L180.566 213.064L183.359 210.2ZM116.459 210.2L113.666 207.336L113.648 207.354L113.63 207.372L116.459 210.2ZM116.459 278.6L113.63 281.428L113.648 281.446L113.666 281.464L116.459 278.6ZM150.359 307.6C139.797 307.6 130.423 305.873 122.173 302.498L119.144 309.902C128.494 313.727 138.92 315.6 150.359 315.6V307.6ZM122.244 302.528C113.943 298.943 106.916 293.968 101.114 287.605L95.2028 292.995C101.801 300.232 109.774 305.857 119.073 309.872L122.244 302.528ZM101.196 287.697C95.5718 281.136 91.1054 273.1 87.8457 263.512L80.2715 266.088C83.8118 276.5 88.7454 285.464 95.1216 292.903L101.196 287.697ZM87.8683 263.581C84.8148 254.039 83.2586 243.259 83.2586 231.2H75.2586C75.2586 243.941 76.9024 255.561 80.2489 266.019L87.8683 263.581ZM83.2586 231.2C83.2586 215.998 85.4989 201.835 89.9477 188.682L82.3695 186.118C77.6182 200.165 75.2586 215.202 75.2586 231.2H83.2586ZM89.9366 188.714C94.6428 175.184 100.51 162.973 107.523 152.063L100.794 147.737C93.4074 159.227 87.2744 172.016 82.3806 186.086L89.9366 188.714ZM107.514 152.078C114.76 140.914 122.766 131.159 131.522 122.792L125.995 117.008C116.751 125.841 108.357 136.086 100.803 147.722L107.514 152.078ZM131.555 122.76C140.398 114.114 148.976 107.205 157.286 101.988L153.032 95.2124C144.141 100.795 135.12 108.086 125.962 117.04L131.555 122.76ZM155.159 102.6H187.559V94.6H155.159V102.6ZM185.223 95.3528C173.742 103.611 163.445 111.686 154.339 119.577L159.578 125.623C168.473 117.914 178.576 109.989 189.894 101.847L185.223 95.3528ZM154.305 119.607C145.342 127.552 137.377 135.922 130.421 144.719L136.696 149.681C143.34 141.278 150.975 133.248 159.612 125.593L154.305 119.607ZM130.45 144.683C123.446 153.334 117.574 162.709 112.838 172.8L120.08 176.2C124.543 166.691 130.071 157.866 136.668 149.717L130.45 144.683ZM112.851 172.772C108.114 182.659 104.228 193.824 101.174 206.245L108.943 208.155C111.889 196.175 115.603 185.541 120.066 176.228L112.851 172.772ZM103.573 210.914L105.073 211.514L108.044 204.086L106.544 203.486L103.573 210.914ZM110.017 209.81C114.718 201.725 120.907 195.067 128.614 189.803L124.103 183.197C115.41 189.133 108.399 196.675 103.101 205.79L110.017 209.81ZM128.668 189.766C136.019 184.567 145.743 181.8 158.159 181.8V173.8C144.574 173.8 133.098 176.833 124.049 183.234L128.668 189.766ZM158.159 181.8C166.919 181.8 174.813 183.227 181.89 186.021L184.827 178.579C176.704 175.373 167.798 173.8 158.159 173.8V181.8ZM181.89 186.021C188.997 188.826 195.13 192.828 200.33 198.028L205.987 192.372C199.987 186.372 192.92 181.774 184.827 178.579L181.89 186.021ZM200.33 198.028C205.495 203.194 209.498 209.496 212.313 217.004L219.804 214.195C216.619 205.704 212.022 198.406 205.987 192.372L200.33 198.028ZM212.345 217.086C215.332 224.553 216.859 232.939 216.859 242.3H224.859C224.859 232.061 223.186 222.647 219.773 214.114L212.345 217.086ZM216.859 242.3C216.859 252.048 215.235 260.944 212.039 269.029L219.478 271.971C223.082 262.856 224.859 252.952 224.859 242.3H216.859ZM212.051 268.999C208.845 276.919 204.338 283.763 198.53 289.572L204.187 295.228C210.779 288.637 215.872 280.881 219.466 272.001L212.051 268.999ZM198.53 289.572C192.966 295.135 186.055 299.547 177.717 302.769L180.6 310.231C189.862 306.653 197.751 301.665 204.187 295.228L198.53 289.572ZM177.688 302.78C169.619 305.97 160.528 307.6 150.359 307.6V315.6C161.389 315.6 171.498 313.83 180.629 310.22L177.688 302.78ZM150.059 294.3C165.182 294.3 177.428 290.187 186.187 281.428L180.53 275.772C173.689 282.613 163.735 286.3 150.059 286.3V294.3ZM186.151 281.464C195.119 272.72 199.359 260.57 199.359 245.6H191.359C191.359 259.03 187.598 268.88 180.566 275.736L186.151 281.464ZM199.359 245.6V243.2H191.359V245.6H199.359ZM199.359 243.2C199.359 228.23 195.119 216.08 186.151 207.336L180.566 213.064C187.598 219.92 191.359 229.77 191.359 243.2H199.359ZM186.187 207.372C177.428 198.613 165.182 194.5 150.059 194.5V202.5C163.735 202.5 173.689 206.187 180.53 213.028L186.187 207.372ZM150.059 194.5C134.929 194.5 122.611 198.615 113.666 207.336L119.251 213.064C126.306 206.185 136.388 202.5 150.059 202.5V194.5ZM113.63 207.372C104.881 216.12 100.759 228.258 100.759 243.2H108.759C108.759 229.742 112.436 219.88 119.287 213.028L113.63 207.372ZM100.759 243.2V245.6H108.759V243.2H100.759ZM100.759 245.6C100.759 260.542 104.881 272.68 113.63 281.428L119.287 275.772C112.436 268.92 108.759 259.058 108.759 245.6H100.759ZM113.666 281.464C122.611 290.185 134.929 294.3 150.059 294.3V286.3C136.388 286.3 126.306 282.615 119.251 275.736L113.666 281.464Z" fill="black"/>
</svg>
