<svg width="300" height="390" viewBox="0 0 300 390" fill="none" xmlns="http://www.w3.org/2000/svg">
<rect x="6.25" y="56.25" width="287.5" height="287.5" fill="#C1C1C1" stroke="#828282" stroke-width="12.5"/>
<path d="M141.059 187.4C155.659 187.4 166.559 184.2 173.759 177.8C181.159 171.2 184.859 162.8 184.859 152.6V150.5C184.859 139.3 181.259 130.9 174.059 125.3C167.059 119.7 157.859 116.9 146.459 116.9C135.259 116.9 126.159 119.4 119.159 124.4C112.359 129.2 106.759 135.6 102.359 143.6L83.4586 129.2C86.0586 125 89.2586 120.9 93.0586 116.9C96.8586 112.7 101.259 109 106.259 105.8C111.459 102.6 117.359 100 123.959 98C130.759 96 138.459 95 147.059 95C156.059 95 164.459 96.2 172.259 98.6C180.059 100.8 186.859 104.2 192.659 108.8C198.459 113.2 202.959 118.7 206.159 125.3C209.559 131.9 211.259 139.4 211.259 147.8C211.259 154.6 210.159 160.7 207.959 166.1C205.959 171.5 203.059 176.2 199.259 180.2C195.659 184.2 191.359 187.6 186.359 190.4C181.359 193.2 176.059 195.3 170.459 196.7V197.9C176.259 199.1 181.859 201.1 187.259 203.9C192.659 206.5 197.459 210 201.659 214.4C205.859 218.6 209.159 223.8 211.559 230C214.159 236 215.459 242.9 215.459 250.7C215.459 259.7 213.659 268 210.059 275.6C206.659 283 201.759 289.4 195.359 294.8C189.159 300 181.559 304.1 172.559 307.1C163.759 310.1 153.959 311.6 143.159 311.6C133.959 311.6 125.759 310.6 118.559 308.6C111.559 306.6 105.259 303.9 99.6586 300.5C94.2586 297.1 89.4586 293.3 85.2586 289.1C81.2586 284.9 77.6586 280.5 74.4586 275.9L93.3586 261.5C96.1586 265.7 99.0586 269.5 102.059 272.9C105.059 276.3 108.459 279.3 112.259 281.9C116.259 284.3 120.759 286.2 125.759 287.6C130.759 289 136.559 289.7 143.159 289.7C157.959 289.7 169.259 286.3 177.059 279.5C185.059 272.7 189.059 263 189.059 250.4V248C189.059 235.6 185.159 226 177.359 219.2C169.759 212.4 158.259 209 142.859 209H117.959V187.4H141.059Z" fill="#FFD300"/>
<path d="M173.759 177.8L176.416 180.79L176.421 180.785L173.759 177.8ZM174.059 125.3L171.56 128.423L171.581 128.441L171.603 128.457L174.059 125.3ZM119.159 124.4L121.465 127.668L121.474 127.661L121.484 127.655L119.159 124.4ZM102.359 143.6L99.9344 146.782L103.627 149.595L105.863 145.528L102.359 143.6ZM83.4586 129.2L80.0575 127.095L78.1466 130.181L81.0344 132.382L83.4586 129.2ZM93.0586 116.9L95.9586 119.655L95.9921 119.62L96.0247 119.584L93.0586 116.9ZM106.259 105.8L104.162 102.393L104.132 102.412L104.102 102.431L106.259 105.8ZM123.959 98L122.83 94.1625L122.814 94.1671L122.799 94.1719L123.959 98ZM172.259 98.6L171.082 102.423L171.127 102.437L171.173 102.45L172.259 98.6ZM192.659 108.8L190.173 111.934L190.207 111.961L190.241 111.987L192.659 108.8ZM206.159 125.3L202.559 127.045L202.58 127.089L202.603 127.132L206.159 125.3ZM207.959 166.1L204.254 164.591L204.23 164.65L204.208 164.711L207.959 166.1ZM199.259 180.2L196.359 177.445L196.321 177.484L196.285 177.524L199.259 180.2ZM186.359 190.4L188.313 193.89L188.313 193.89L186.359 190.4ZM170.459 196.7L169.488 192.819L166.459 193.577V196.7H170.459ZM170.459 197.9H166.459V201.157L169.648 201.817L170.459 197.9ZM187.259 203.9L185.417 207.451L185.47 207.478L185.523 207.504L187.259 203.9ZM201.659 214.4L198.765 217.162L198.797 217.196L198.83 217.228L201.659 214.4ZM211.559 230L207.828 231.444L207.857 231.518L207.888 231.59L211.559 230ZM210.059 275.6L206.444 273.888L206.434 273.909L206.424 273.93L210.059 275.6ZM195.359 294.8L197.929 297.865L197.938 297.857L195.359 294.8ZM172.559 307.1L171.294 303.305L171.281 303.31L171.268 303.314L172.559 307.1ZM118.559 308.6L117.46 312.446L117.474 312.45L117.488 312.454L118.559 308.6ZM99.6586 300.5L97.5273 303.885L97.5549 303.902L97.5827 303.919L99.6586 300.5ZM85.2586 289.1L82.362 291.859L82.3957 291.894L82.4302 291.928L85.2586 289.1ZM74.4586 275.9L72.0344 272.718L68.9875 275.04L71.175 278.184L74.4586 275.9ZM93.3586 261.5L96.6868 259.281L94.3234 255.736L90.9344 258.318L93.3586 261.5ZM102.059 272.9L105.058 270.254L105.058 270.254L102.059 272.9ZM112.259 281.9L110 285.201L110.098 285.269L110.201 285.33L112.259 281.9ZM177.059 279.5L174.468 276.452L174.449 276.468L174.43 276.485L177.059 279.5ZM177.359 219.2L174.691 222.181L174.711 222.198L174.73 222.215L177.359 219.2ZM117.959 209H113.959V213H117.959V209ZM117.959 187.4V183.4H113.959V187.4H117.959ZM141.059 191.4C156.15 191.4 168.186 188.105 176.416 180.79L171.101 174.81C164.931 180.295 155.168 183.4 141.059 183.4V191.4ZM176.421 180.785C184.699 173.402 188.859 163.903 188.859 152.6H180.859C180.859 161.697 177.618 168.998 171.096 174.815L176.421 180.785ZM188.859 152.6V150.5H180.859V152.6H188.859ZM188.859 150.5C188.859 138.377 184.911 128.673 176.514 122.143L171.603 128.457C177.606 133.127 180.859 140.223 180.859 150.5H188.859ZM176.557 122.177C168.674 115.87 158.516 112.9 146.459 112.9V120.9C157.201 120.9 165.443 123.53 171.56 128.423L176.557 122.177ZM146.459 112.9C134.676 112.9 124.691 115.533 116.834 121.145L121.484 127.655C127.626 123.267 135.842 120.9 146.459 120.9V112.9ZM116.852 121.132C109.509 126.315 103.517 133.193 98.8537 141.672L105.863 145.528C110 138.007 115.208 132.085 121.465 127.668L116.852 121.132ZM104.783 140.418L85.8828 126.018L81.0344 132.382L99.9344 146.782L104.783 140.418ZM86.8597 131.305C89.2997 127.364 92.3258 123.479 95.9586 119.655L90.1586 114.145C86.1914 118.321 82.8175 122.636 80.0575 127.095L86.8597 131.305ZM96.0247 119.584C99.5752 115.659 103.7 112.187 108.415 109.169L104.102 102.431C98.8176 105.813 94.142 109.741 90.0925 114.216L96.0247 119.584ZM108.355 109.207C113.227 106.208 118.806 103.741 125.119 101.828L122.799 94.1719C115.911 96.2589 109.69 98.9917 104.162 102.393L108.355 109.207ZM125.087 101.837C131.452 99.9653 138.762 99 147.059 99V91C138.155 91 130.065 92.0346 122.83 94.1625L125.087 101.837ZM147.059 99C155.7 99 163.7 100.152 171.082 102.423L173.435 94.7769C165.217 92.2482 156.417 91 147.059 91V99ZM171.173 102.45C178.512 104.52 184.825 107.693 190.173 111.934L195.144 105.666C188.892 100.707 181.605 97.0802 173.344 94.7502L171.173 102.45ZM190.241 111.987C195.535 116.003 199.632 121.008 202.559 127.045L209.758 123.555C206.285 116.392 201.382 110.397 195.076 105.613L190.241 111.987ZM202.603 127.132C205.674 133.095 207.259 139.953 207.259 147.8H215.259C215.259 138.847 213.443 130.705 209.714 123.468L202.603 127.132ZM207.259 147.8C207.259 154.167 206.229 159.743 204.254 164.591L211.663 167.609C214.088 161.657 215.259 155.033 215.259 147.8H207.259ZM204.208 164.711C202.387 169.625 199.769 173.855 196.359 177.445L202.159 182.955C206.348 178.545 209.53 173.375 211.71 167.489L204.208 164.711ZM196.285 177.524C192.997 181.178 189.047 184.31 184.404 186.91L188.313 193.89C193.67 190.89 198.321 187.222 202.232 182.876L196.285 177.524ZM184.404 186.91C179.716 189.535 174.747 191.505 169.488 192.819L171.429 200.581C177.37 199.095 183.001 196.865 188.313 193.89L184.404 186.91ZM166.459 196.7V197.9H174.459V196.7H166.459ZM169.648 201.817C175.08 202.941 180.334 204.815 185.417 207.451L189.1 200.349C183.383 197.385 177.437 195.259 171.269 193.983L169.648 201.817ZM185.523 207.504C190.483 209.892 194.892 213.105 198.765 217.162L204.552 211.638C200.025 206.895 194.834 203.108 188.994 200.296L185.523 207.504ZM198.83 217.228C202.592 220.99 205.605 225.701 207.828 231.444L215.289 228.556C212.712 221.899 209.125 216.21 204.487 211.572L198.83 217.228ZM207.888 231.59C210.233 237.001 211.459 243.343 211.459 250.7H219.459C219.459 242.457 218.084 234.999 215.229 228.41L207.888 231.59ZM211.459 250.7C211.459 259.15 209.773 266.86 206.444 273.888L213.674 277.312C217.545 269.14 219.459 260.25 219.459 250.7H211.459ZM206.424 273.93C203.276 280.78 198.743 286.711 192.779 291.743L197.938 297.857C204.774 292.089 210.041 285.22 213.693 277.27L206.424 273.93ZM192.788 291.735C187.034 296.561 179.897 300.437 171.294 303.305L173.824 310.895C183.22 307.763 191.283 303.439 197.929 297.865L192.788 291.735ZM171.268 303.314C162.945 306.151 153.589 307.6 143.159 307.6V315.6C154.328 315.6 164.573 314.049 173.849 310.886L171.268 303.314ZM143.159 307.6C134.24 307.6 126.411 306.63 119.629 304.746L117.488 312.454C125.106 314.57 133.677 315.6 143.159 315.6V307.6ZM119.657 304.754C112.963 302.841 106.998 300.276 101.735 297.081L97.5827 303.919C103.52 307.524 110.154 310.359 117.46 312.446L119.657 304.754ZM101.79 297.115C96.6237 293.862 92.0611 290.246 88.087 286.272L82.4302 291.928C86.8561 296.354 91.8935 300.338 97.5273 303.885L101.79 297.115ZM88.1551 286.341C84.2912 282.284 80.8215 278.042 77.7422 273.616L71.175 278.184C74.4957 282.958 78.226 287.516 82.362 291.859L88.1551 286.341ZM76.8828 279.082L95.7828 264.682L90.9344 258.318L72.0344 272.718L76.8828 279.082ZM90.0304 263.719C92.9192 268.052 95.9277 271.997 99.0592 275.546L105.058 270.254C102.19 267.003 99.398 263.348 96.6868 259.281L90.0304 263.719ZM99.0592 275.546C102.281 279.198 105.931 282.417 110 285.201L114.517 278.599C110.986 276.183 107.836 273.402 105.058 270.254L99.0592 275.546ZM110.201 285.33C114.539 287.933 119.375 289.966 124.68 291.452L126.837 283.748C122.143 282.434 117.978 280.667 114.317 278.47L110.201 285.33ZM124.68 291.452C130.111 292.973 136.288 293.7 143.159 293.7V285.7C136.83 285.7 131.406 285.027 126.837 283.748L124.68 291.452ZM143.159 293.7C158.515 293.7 170.9 290.176 179.687 282.515L174.43 276.485C167.618 282.424 157.403 285.7 143.159 285.7V293.7ZM179.649 282.548C188.723 274.835 193.059 263.915 193.059 250.4H185.059C185.059 262.085 181.394 270.565 174.468 276.452L179.649 282.548ZM193.059 250.4V248H185.059V250.4H193.059ZM193.059 248C193.059 234.695 188.831 223.895 179.987 216.185L174.73 222.215C181.486 228.105 185.059 236.505 185.059 248H193.059ZM180.026 216.219C171.396 208.498 158.756 205 142.859 205V213C157.761 213 168.121 216.302 174.691 222.181L180.026 216.219ZM142.859 205H117.959V213H142.859V205ZM121.959 209V187.4H113.959V209H121.959ZM117.959 191.4H141.059V183.4H117.959V191.4Z" fill="black"/>
</svg>
