<svg width="300" height="300" viewBox="0 0 300 300" fill="none" xmlns="http://www.w3.org/2000/svg">
<rect x="6.25" y="6.25" width="287.5" height="287.5" fill="#C1C1C1" stroke="#828282" stroke-width="12.5"/>
<path d="M150.059 266.6C137.859 266.6 127.159 265.1 117.959 262.1C108.759 258.9 101.059 254.6 94.8586 249.2C88.8586 243.8 84.2586 237.4 81.0586 230C78.0586 222.6 76.5586 214.6 76.5586 206C76.5586 191.6 80.4586 180.2 88.2586 171.8C96.0586 163.4 106.359 157.5 119.159 154.1V151.7C107.959 147.9 99.0586 141.8 92.4586 133.4C86.0586 124.8 82.8586 114.5 82.8586 102.5C82.8586 86.5 88.7586 73.8 100.559 64.4C112.359 54.8 128.859 50 150.059 50C171.259 50 187.759 54.8 199.559 64.4C211.359 73.8 217.259 86.5 217.259 102.5C217.259 114.5 213.959 124.8 207.359 133.4C200.959 141.8 192.159 147.9 180.959 151.7V154.1C193.759 157.5 204.059 163.4 211.859 171.8C219.659 180.2 223.559 191.6 223.559 206C223.559 214.6 221.959 222.6 218.759 230C215.759 237.4 211.159 243.8 204.959 249.2C198.759 254.6 191.059 258.9 181.859 262.1C172.859 265.1 162.259 266.6 150.059 266.6ZM150.059 245.3C164.859 245.3 176.459 242 184.859 235.4C193.259 228.8 197.459 219.5 197.459 207.5V200.9C197.459 188.9 193.259 179.6 184.859 173C176.659 166.4 165.059 163.1 150.059 163.1C135.059 163.1 123.359 166.4 114.959 173C106.759 179.6 102.659 188.9 102.659 200.9V207.5C102.659 219.5 106.859 228.8 115.259 235.4C123.659 242 135.259 245.3 150.059 245.3ZM150.059 142.7C163.659 142.7 173.959 139.8 180.959 134C188.159 128.2 191.759 119.9 191.759 109.1V104.9C191.759 94.1 188.059 85.8 180.659 80C173.459 74.2 163.259 71.3 150.059 71.3C136.859 71.3 126.559 74.2 119.159 80C111.959 85.8 108.359 94.1 108.359 104.9V109.1C108.359 119.9 111.859 128.2 118.859 134C126.059 139.8 136.459 142.7 150.059 142.7Z" fill="#147DF5"/>
<path d="M117.959 262.1L116.645 265.878L116.681 265.891L116.719 265.903L117.959 262.1ZM94.8586 249.2L92.1827 252.173L92.2069 252.195L92.2315 252.216L94.8586 249.2ZM81.0586 230L77.3516 231.503L77.3689 231.545L77.3872 231.588L81.0586 230ZM88.2586 171.8L91.1898 174.522L91.1898 174.522L88.2586 171.8ZM119.159 154.1L120.185 157.966L123.159 157.176V154.1H119.159ZM119.159 151.7H123.159V148.833L120.444 147.912L119.159 151.7ZM92.4586 133.4L89.2497 135.788L89.2809 135.83L89.3133 135.871L92.4586 133.4ZM100.559 64.4L103.051 67.5286L103.067 67.5158L103.083 67.5028L100.559 64.4ZM199.559 64.4L197.034 67.5028L197.05 67.5158L197.066 67.5286L199.559 64.4ZM207.359 133.4L204.185 130.965L204.177 130.976L207.359 133.4ZM180.959 151.7L179.673 147.912L176.959 148.833V151.7H180.959ZM180.959 154.1H176.959V157.176L179.932 157.966L180.959 154.1ZM211.859 171.8L214.79 169.078L214.79 169.078L211.859 171.8ZM218.759 230L215.087 228.412L215.069 228.455L215.052 228.497L218.759 230ZM181.859 262.1L183.124 265.895L183.148 265.887L183.173 265.878L181.859 262.1ZM184.859 235.4L182.387 232.255L182.387 232.255L184.859 235.4ZM184.859 173L182.351 176.116L182.369 176.131L182.387 176.145L184.859 173ZM114.959 173L112.487 169.855L112.469 169.869L112.451 169.884L114.959 173ZM115.259 235.4L117.73 232.255L117.73 232.255L115.259 235.4ZM180.959 134L178.449 130.885L178.428 130.902L178.407 130.92L180.959 134ZM180.659 80L178.149 83.115L178.17 83.1318L178.191 83.1482L180.659 80ZM119.159 80L116.691 76.8518L116.67 76.8682L116.649 76.885L119.159 80ZM118.859 134L116.307 137.08L116.328 137.098L116.349 137.115L118.859 134ZM150.059 262.6C138.175 262.6 127.91 261.138 119.199 258.297L116.719 265.903C126.408 269.062 137.542 270.6 150.059 270.6V262.6ZM119.273 258.322C110.468 255.259 103.237 251.192 97.4857 246.184L92.2315 252.216C98.8806 258.008 107.05 262.541 116.645 265.878L119.273 258.322ZM97.5345 246.227C91.9615 241.211 87.7014 235.284 84.73 228.412L77.3872 231.588C80.8158 239.516 85.7556 246.389 92.1827 252.173L97.5345 246.227ZM84.7656 228.497C81.9736 221.61 80.5586 214.125 80.5586 206H72.5586C72.5586 215.075 74.1436 223.59 77.3516 231.503L84.7656 228.497ZM80.5586 206C80.5586 192.34 84.2406 182.005 91.1898 174.522L85.3274 169.078C76.6766 178.394 72.5586 190.86 72.5586 206H80.5586ZM91.1898 174.522C98.3999 166.757 108 161.203 120.185 157.966L118.132 150.234C104.717 153.797 93.7173 160.043 85.3274 169.078L91.1898 174.522ZM123.159 154.1V151.7H115.159V154.1H123.159ZM120.444 147.912C109.897 144.334 101.674 138.654 95.6039 130.929L89.3133 135.871C96.4432 144.946 106.02 151.466 117.873 155.488L120.444 147.912ZM95.6675 131.012C89.842 123.184 86.8586 113.747 86.8586 102.5H78.8586C78.8586 115.253 82.2752 126.416 89.2497 135.788L95.6675 131.012ZM86.8586 102.5C86.8586 87.633 92.2682 76.1182 103.051 67.5286L98.0663 61.2713C85.249 71.4818 78.8586 85.367 78.8586 102.5H86.8586ZM103.083 67.5028C113.934 58.6745 129.421 54 150.059 54V46C128.296 46 110.783 50.9255 98.0342 61.2971L103.083 67.5028ZM150.059 54C170.696 54 186.183 58.6745 197.034 67.5028L202.083 61.2971C189.334 50.9255 171.821 46 150.059 46V54ZM197.066 67.5286C207.849 76.1182 213.259 87.633 213.259 102.5H221.259C221.259 85.367 214.868 71.4818 202.051 61.2713L197.066 67.5286ZM213.259 102.5C213.259 113.719 210.192 123.138 204.185 130.965L210.532 135.835C217.726 126.462 221.259 115.281 221.259 102.5H213.259ZM204.177 130.976C198.316 138.668 190.213 144.336 179.673 147.912L182.244 155.488C194.104 151.464 203.601 144.932 210.54 135.824L204.177 130.976ZM176.959 151.7V154.1H184.959V151.7H176.959ZM179.932 157.966C192.117 161.203 201.717 166.757 208.927 174.522L214.79 169.078C206.4 160.043 195.4 153.797 181.985 150.234L179.932 157.966ZM208.927 174.522C215.877 182.005 219.559 192.34 219.559 206H227.559C227.559 190.86 223.441 178.394 214.79 169.078L208.927 174.522ZM219.559 206C219.559 214.091 218.056 221.546 215.087 228.412L222.43 231.588C225.861 223.654 227.559 215.109 227.559 206H219.559ZM215.052 228.497C212.295 235.297 208.072 241.184 202.331 246.184L207.586 252.216C214.245 246.416 219.222 239.503 222.466 231.503L215.052 228.497ZM202.331 246.184C196.581 251.192 189.35 255.259 180.545 258.322L183.173 265.878C192.768 262.541 200.937 258.008 207.586 252.216L202.331 246.184ZM180.594 258.305C172.099 261.137 161.945 262.6 150.059 262.6V270.6C162.572 270.6 173.618 269.063 183.124 265.895L180.594 258.305ZM150.059 249.3C165.415 249.3 177.998 245.878 187.33 238.545L182.387 232.255C174.92 238.122 164.303 241.3 150.059 241.3V249.3ZM187.33 238.545C196.823 231.087 201.459 220.555 201.459 207.5H193.459C193.459 218.445 189.694 226.513 182.387 232.255L187.33 238.545ZM201.459 207.5V200.9H193.459V207.5H201.459ZM201.459 200.9C201.459 187.845 196.823 177.313 187.33 169.855L182.387 176.145C189.694 181.887 193.459 189.955 193.459 200.9H201.459ZM187.367 169.884C178.208 162.512 165.592 159.1 150.059 159.1V167.1C164.525 167.1 175.109 170.288 182.351 176.116L187.367 169.884ZM150.059 159.1C134.517 159.1 121.828 162.516 112.487 169.855L117.43 176.145C124.889 170.284 135.6 167.1 150.059 167.1V159.1ZM112.451 169.884C103.168 177.356 98.6586 187.88 98.6586 200.9H106.659C106.659 189.92 110.35 181.844 117.467 176.116L112.451 169.884ZM98.6586 200.9V207.5H106.659V200.9H98.6586ZM98.6586 207.5C98.6586 220.555 103.294 231.087 112.787 238.545L117.73 232.255C110.423 226.513 106.659 218.445 106.659 207.5H98.6586ZM112.787 238.545C122.12 245.878 134.703 249.3 150.059 249.3V241.3C135.815 241.3 125.198 238.122 117.73 232.255L112.787 238.545ZM150.059 146.7C164.145 146.7 175.512 143.707 183.511 137.08L178.407 130.92C172.405 135.893 163.172 138.7 150.059 138.7V146.7ZM183.468 137.115C191.775 130.423 195.759 120.883 195.759 109.1H187.759C187.759 118.917 184.543 125.977 178.449 130.885L183.468 137.115ZM195.759 109.1V104.9H187.759V109.1H195.759ZM195.759 104.9C195.759 93.0775 191.645 83.5289 183.126 76.8518L178.191 83.1482C184.472 88.0711 187.759 95.1225 187.759 104.9H195.759ZM183.168 76.885C175.008 70.3116 163.79 67.3 150.059 67.3V75.3C162.727 75.3 171.909 78.0884 178.149 83.115L183.168 76.885ZM150.059 67.3C136.318 67.3 125.031 70.3153 116.691 76.8518L121.626 83.1482C128.086 78.0847 137.399 75.3 150.059 75.3V67.3ZM116.649 76.885C108.343 83.5765 104.359 93.1174 104.359 104.9H112.359C112.359 95.0826 115.575 88.0235 121.668 83.115L116.649 76.885ZM104.359 104.9V109.1H112.359V104.9H104.359ZM104.359 109.1C104.359 120.843 108.214 130.375 116.307 137.08L121.411 130.92C115.503 126.025 112.359 118.957 112.359 109.1H104.359ZM116.349 137.115C124.527 143.703 135.961 146.7 150.059 146.7V138.7C136.956 138.7 127.59 135.897 121.368 130.885L116.349 137.115Z" fill="black"/>
</svg>
