<svg width="300" height="390" viewBox="0 0 300 390" fill="none" xmlns="http://www.w3.org/2000/svg">
<rect x="6.25" y="56.25" width="287.5" height="287.5" fill="#C1C1C1" stroke="#828282" stroke-width="12.5"/>
<path d="M173.459 308V266.9H70.2586V244.7L160.859 98.6H197.459V246.2H228.659V266.9H197.459V308H173.459ZM92.7586 246.2H173.459V118.1H172.259L92.7586 246.2Z" fill="#DEFF0A"/>
<path d="M173.459 308H169.459V312H173.459V308ZM173.459 266.9H177.459V262.9H173.459V266.9ZM70.2586 266.9H66.2586V270.9H70.2586V266.9ZM70.2586 244.7L66.8592 242.592L66.2586 243.56V244.7H70.2586ZM160.859 98.6V94.6H158.632L157.459 96.4919L160.859 98.6ZM197.459 98.6H201.459V94.6H197.459V98.6ZM197.459 246.2H193.459V250.2H197.459V246.2ZM228.659 246.2H232.659V242.2H228.659V246.2ZM228.659 266.9V270.9H232.659V266.9H228.659ZM197.459 266.9V262.9H193.459V266.9H197.459ZM197.459 308V312H201.459V308H197.459ZM92.7586 246.2L89.3599 244.091L85.5685 250.2H92.7586V246.2ZM173.459 246.2V250.2H177.459V246.2H173.459ZM173.459 118.1H177.459V114.1H173.459V118.1ZM172.259 118.1V114.1H170.033L168.86 115.991L172.259 118.1ZM177.459 308V266.9H169.459V308H177.459ZM173.459 262.9H70.2586V270.9H173.459V262.9ZM74.2586 266.9V244.7H66.2586V266.9H74.2586ZM73.658 246.808L164.258 100.708L157.459 96.4919L66.8592 242.592L73.658 246.808ZM160.859 102.6H197.459V94.6H160.859V102.6ZM193.459 98.6V246.2H201.459V98.6H193.459ZM197.459 250.2H228.659V242.2H197.459V250.2ZM224.659 246.2V266.9H232.659V246.2H224.659ZM228.659 262.9H197.459V270.9H228.659V262.9ZM193.459 266.9V308H201.459V266.9H193.459ZM197.459 304H173.459V312H197.459V304ZM92.7586 250.2H173.459V242.2H92.7586V250.2ZM177.459 246.2V118.1H169.459V246.2H177.459ZM173.459 114.1H172.259V122.1H173.459V114.1ZM168.86 115.991L89.3599 244.091L96.1573 248.309L175.657 120.209L168.86 115.991Z" fill="black"/>
</svg>
