<svg width="300" height="300" viewBox="0 0 300 300" fill="none" xmlns="http://www.w3.org/2000/svg">
<path d="M0 0H300V300H0V0Z" fill="#C1C1C1"/>
<path fill-rule="evenodd" clip-rule="evenodd" d="M287.5 12.5H12.5V287.5H287.5V12.5ZM0 0V300H300V0H0Z" fill="#828282"/>
<path d="M85.5586 263V241.1H145.559V72.2H143.459L90.6586 121.4L75.9586 105.5L131.459 53.6H170.759V241.1H225.959V263H85.5586Z" fill="#FF0000"/>
<path d="M85.5586 263H81.5586V267H85.5586V263ZM85.5586 241.1V237.1H81.5586V241.1H85.5586ZM145.559 241.1V245.1H149.559V241.1H145.559ZM145.559 72.2H149.559V68.2H145.559V72.2ZM143.459 72.2V68.2H141.884L140.732 69.2736L143.459 72.2ZM90.6586 121.4L87.7215 124.115L90.4476 127.064L93.3855 124.326L90.6586 121.4ZM75.9586 105.5L73.2265 102.578L70.3215 105.295L73.0215 108.215L75.9586 105.5ZM131.459 53.6V49.6H129.88L128.727 50.6784L131.459 53.6ZM170.759 53.6H174.759V49.6H170.759V53.6ZM170.759 241.1H166.759V245.1H170.759V241.1ZM225.959 241.1H229.959V237.1H225.959V241.1ZM225.959 263V267H229.959V263H225.959ZM89.5586 263V241.1H81.5586V263H89.5586ZM85.5586 245.1H145.559V237.1H85.5586V245.1ZM149.559 241.1V72.2H141.559V241.1H149.559ZM145.559 68.2H143.459V76.2H145.559V68.2ZM140.732 69.2736L87.9317 118.474L93.3855 124.326L146.186 75.1264L140.732 69.2736ZM93.5957 118.685L78.8957 102.785L73.0215 108.215L87.7215 124.115L93.5957 118.685ZM78.6907 108.422L134.191 56.5216L128.727 50.6784L73.2265 102.578L78.6907 108.422ZM131.459 57.6H170.759V49.6H131.459V57.6ZM166.759 53.6V241.1H174.759V53.6H166.759ZM170.759 245.1H225.959V237.1H170.759V245.1ZM221.959 241.1V263H229.959V241.1H221.959ZM225.959 259H85.5586V267H225.959V259Z" fill="black"/>
</svg>
