<svg width="300" height="300" viewBox="0 0 300 300" fill="none" xmlns="http://www.w3.org/2000/svg">
<rect x="6.25" y="6.25" width="287.5" height="287.5" fill="#C1C1C1" stroke="#828282" stroke-width="12.5"/>
<path d="M111.959 263L193.859 75.2H102.059V114.2H79.5586V53.6H219.359V75.8L138.959 263H111.959Z" fill="#0AEFFF"/>
<path d="M111.959 263L108.292 261.401L105.85 267H111.959V263ZM193.859 75.2L197.525 76.799L199.967 71.2H193.859V75.2ZM102.059 75.2V71.2H98.0586V75.2H102.059ZM102.059 114.2V118.2H106.059V114.2H102.059ZM79.5586 114.2H75.5586V118.2H79.5586V114.2ZM79.5586 53.6V49.6H75.5586V53.6H79.5586ZM219.359 53.6H223.359V49.6H219.359V53.6ZM219.359 75.8L223.034 77.3785L223.359 76.6226V75.8H219.359ZM138.959 263V267H141.594L142.634 264.579L138.959 263ZM115.625 264.599L197.525 76.799L190.192 73.601L108.292 261.401L115.625 264.599ZM193.859 71.2H102.059V79.2H193.859V71.2ZM98.0586 75.2V114.2H106.059V75.2H98.0586ZM102.059 110.2H79.5586V118.2H102.059V110.2ZM83.5586 114.2V53.6H75.5586V114.2H83.5586ZM79.5586 57.6H219.359V49.6H79.5586V57.6ZM215.359 53.6V75.8H223.359V53.6H215.359ZM215.683 74.2215L135.283 261.421L142.634 264.579L223.034 77.3785L215.683 74.2215ZM138.959 259H111.959V267H138.959V259Z" fill="black"/>
</svg>
