<svg width="300" height="300" viewBox="0 0 300 300" fill="none" xmlns="http://www.w3.org/2000/svg">
<rect x="6.25" y="6.25" width="287.5" height="287.5" fill="#C1C1C1" stroke="#828282" stroke-width="12.5"/>
<path d="M221.159 263H81.3586V237.2L151.259 174.2C161.459 165 169.859 155.6 176.459 146C183.059 136.2 186.359 125.9 186.359 115.1V111.5C186.359 98.9 183.059 89.2 176.459 82.4C169.859 75.4 160.059 71.9 147.059 71.9C134.259 71.9 124.359 75.2 117.359 81.8C110.559 88.2 105.459 96.8 102.059 107.6L79.5586 99.2C81.5586 93 84.2586 87 87.6586 81.2C91.2586 75.2 95.7586 69.9 101.159 65.3C106.559 60.7 113.059 57 120.659 54.2C128.459 51.4 137.459 50 147.659 50C158.059 50 167.259 51.5 175.259 54.5C183.459 57.5 190.259 61.7 195.659 67.1C201.259 72.5 205.459 78.9 208.259 86.3C211.259 93.7 212.759 101.8 212.759 110.6C212.759 118.6 211.559 126.1 209.159 133.1C206.959 140.1 203.759 146.8 199.559 153.2C195.559 159.6 190.659 165.9 184.859 172.1C179.259 178.1 172.959 184.1 165.959 190.1L107.459 241.1H221.159V263Z" fill="#FF8700"/>
<path d="M221.159 263V267H225.159V263H221.159ZM81.3586 263H77.3586V267H81.3586V263ZM81.3586 237.2L78.6806 234.229L77.3586 235.42V237.2H81.3586ZM151.259 174.2L153.937 177.171L153.938 177.17L151.259 174.2ZM176.459 146L179.755 148.266L179.766 148.25L179.776 148.234L176.459 146ZM176.459 82.4L173.548 85.144L173.568 85.1651L173.588 85.1859L176.459 82.4ZM117.359 81.8L120.1 84.7128L120.103 84.7103L117.359 81.8ZM102.059 107.6L100.66 111.347L104.608 112.822L105.874 108.801L102.059 107.6ZM79.5586 99.2L75.7518 97.972L74.5781 101.61L78.1596 102.947L79.5586 99.2ZM87.6586 81.2L84.2286 79.142L84.2181 79.1595L84.2078 79.1771L87.6586 81.2ZM101.159 65.3L103.752 68.345L103.752 68.345L101.159 65.3ZM120.659 54.2L119.307 50.4352L119.291 50.4408L119.276 50.4466L120.659 54.2ZM175.259 54.5L173.854 58.2453L173.869 58.2509L173.884 58.2565L175.259 54.5ZM195.659 67.1L192.83 69.9284L192.856 69.9541L192.882 69.9794L195.659 67.1ZM208.259 86.3L204.517 87.7156L204.534 87.7594L204.552 87.8028L208.259 86.3ZM209.159 133.1L205.375 131.803L205.358 131.851L205.343 131.901L209.159 133.1ZM199.559 153.2L196.214 151.005L196.19 151.042L196.167 151.08L199.559 153.2ZM184.859 172.1L181.938 169.367L181.934 169.371L184.859 172.1ZM165.959 190.1L163.355 187.063L163.343 187.074L163.33 187.085L165.959 190.1ZM107.459 241.1L104.83 238.085L96.7833 245.1H107.459V241.1ZM221.159 241.1H225.159V237.1H221.159V241.1ZM221.159 259H81.3586V267H221.159V259ZM85.3586 263V237.2H77.3586V263H85.3586ZM84.0366 240.171L153.937 177.171L148.581 171.229L78.6806 234.229L84.0366 240.171ZM153.938 177.17C164.33 167.797 172.949 158.165 179.755 148.266L173.162 143.734C166.768 153.035 158.587 162.203 148.58 171.23L153.938 177.17ZM179.776 148.234C186.777 137.839 190.359 126.771 190.359 115.1H182.359C182.359 125.029 179.34 134.561 173.141 143.766L179.776 148.234ZM190.359 115.1V111.5H182.359V115.1H190.359ZM190.359 111.5C190.359 98.2128 186.867 87.3804 179.329 79.6141L173.588 85.1859C179.25 91.0196 182.359 99.5872 182.359 111.5H190.359ZM179.369 79.6559C171.776 71.6028 160.759 67.9 147.059 67.9V75.9C159.358 75.9 167.941 79.1972 173.548 85.144L179.369 79.6559ZM147.059 67.9C133.584 67.9 122.575 71.3842 114.615 78.8896L120.103 84.7103C126.142 79.0158 134.933 75.9 147.059 75.9V67.9ZM114.617 78.8872C107.223 85.8466 101.805 95.0839 98.2432 106.399L105.874 108.801C109.112 98.5161 113.894 90.5534 120.1 84.7128L114.617 78.8872ZM103.458 103.853L80.9576 95.4526L78.1596 102.947L100.66 111.347L103.458 103.853ZM83.3654 100.428C85.2732 94.5139 87.8519 88.7797 91.1094 83.2229L84.2078 79.1771C80.6653 85.2203 77.844 91.4861 75.7518 97.972L83.3654 100.428ZM91.0886 83.258C94.4622 77.6353 98.6782 72.6675 103.752 68.345L98.5647 62.255C92.839 67.1325 88.055 72.7646 84.2286 79.142L91.0886 83.258ZM103.752 68.345C108.747 64.0907 114.822 60.6132 122.041 57.9534L119.276 50.4466C111.295 53.3867 104.371 57.3093 98.5647 62.255L103.752 68.345ZM122.01 57.9648C129.289 55.3516 137.817 54 147.659 54V46C137.1 46 127.628 47.4483 119.307 50.4352L122.01 57.9648ZM147.659 54C157.68 54 166.389 55.4459 173.854 58.2453L176.663 50.7547C168.128 47.5541 158.437 46 147.659 46V54ZM173.884 58.2565C181.616 61.0852 187.897 64.995 192.83 69.9284L198.487 64.2716C192.62 58.405 185.301 53.9148 176.633 50.7435L173.884 58.2565ZM192.882 69.9794C198.049 74.9616 201.923 80.8591 204.517 87.7156L212 84.8844C208.994 76.9409 204.468 70.0384 198.435 64.2206L192.882 69.9794ZM204.552 87.8028C207.339 94.6789 208.759 102.262 208.759 110.6H216.759C216.759 101.338 215.178 92.7211 211.966 84.7972L204.552 87.8028ZM208.759 110.6C208.759 118.194 207.62 125.253 205.375 131.803L212.942 134.397C215.497 126.947 216.759 119.006 216.759 110.6H208.759ZM205.343 131.901C203.258 138.534 200.221 144.9 196.214 151.005L202.903 155.395C207.296 148.7 210.659 141.666 212.975 134.299L205.343 131.901ZM196.167 151.08C192.319 157.236 187.583 163.333 181.938 169.367L187.78 174.833C193.735 168.467 198.798 161.964 202.951 155.32L196.167 151.08ZM181.934 169.371C176.447 175.25 170.256 181.148 163.355 187.063L168.562 193.137C175.661 187.052 182.07 180.95 187.783 174.829L181.934 169.371ZM163.33 187.085L104.83 238.085L110.087 244.115L168.587 193.115L163.33 187.085ZM107.459 245.1H221.159V237.1H107.459V245.1ZM217.159 241.1V263H225.159V241.1H217.159Z" fill="black"/>
</svg>
