<svg width="1800" height="1150" viewBox="0 0 1800 1150" fill="none" xmlns="http://www.w3.org/2000/svg">
    <g id="hidden">
        <path d="M350 100H50V400L350 100Z" fill="#FBFBFB" />
        <path d="M350 100L50 400H350V100Z" fill="#818181" />
        <rect x="75" y="125" width="250" height="250" fill="#C1C1C1" />
    </g>
    <g id="flagged">
        <path d="M700 100L400 400H700V100Z" fill="#818181" />
        <path d="M700 100H400V400L700 100Z" fill="#FBFBFB" />
        <rect x="425" y="125" width="250" height="250" fill="#C1C1C1" />
        <path d="M475 350V333.333H507.625V316.333H529.5V300H545V140H555V300H573.25V316.333H595.125V333.333H625V350H475Z" fill="#010101" />
        <path d="M475 200L545 150.5V250L475 200Z" fill="#FF0000" />
    </g>
    <g id="num-0">
        <rect id="test" x="56.25" y="456.25" width="287.5" height="287.5" fill="#C1C1C1" stroke="#828282" stroke-width="12.5" />
    </g>
    <g id="num-1">
        <rect x="406.25" y="456.25" width="287.5" height="287.5" fill="#C1C1C1" stroke="#828282" stroke-width="12.5" />
        <path id="1" d="M496.299 694V675.75H546.299V535H544.549L500.549 576L488.299 562.75L534.549 519.5H567.299V675.75H613.299V694H496.299Z" fill="#BF4040" />
    </g>
    <g id="num-2">
        <rect x="756.25" y="456.25" width="287.5" height="287.5" fill="#C1C1C1" stroke="#828282" stroke-width="12.5" />
        <path id="2" d="M959.299 694H842.799V672.5L901.049 620C909.549 612.333 916.549 604.5 922.049 596.5C927.549 588.333 930.299 579.75 930.299 570.75V567.75C930.299 557.25 927.549 549.167 922.049 543.5C916.549 537.667 908.382 534.75 897.549 534.75C886.882 534.75 878.632 537.5 872.799 543C867.132 548.333 862.882 555.5 860.049 564.5L841.299 557.5C842.965 552.333 845.215 547.333 848.049 542.5C851.049 537.5 854.799 533.083 859.299 529.25C863.799 525.417 869.215 522.333 875.549 520C882.049 517.667 889.549 516.5 898.049 516.5C906.715 516.5 914.382 517.75 921.049 520.25C927.882 522.75 933.549 526.25 938.049 530.75C942.715 535.25 946.215 540.583 948.549 546.75C951.049 552.917 952.299 559.667 952.299 567C952.299 573.667 951.299 579.917 949.299 585.75C947.466 591.583 944.799 597.167 941.299 602.5C937.966 607.833 933.882 613.083 929.049 618.25C924.382 623.25 919.132 628.25 913.299 633.25L864.549 675.75H959.299V694Z" fill="#FF8700" />
    </g>
    <g id="num-3">
        <rect x="1106.25" y="456.25" width="287.5" height="287.5" fill="#C1C1C1" stroke="#828282" stroke-width="12.5" />
        <path id="3" d="M1242.55 593.5C1254.72 593.5 1263.8 590.833 1269.8 585.5C1275.97 580 1279.05 573 1279.05 564.5V562.75C1279.05 553.417 1276.05 546.417 1270.05 541.75C1264.22 537.083 1256.55 534.75 1247.05 534.75C1237.72 534.75 1230.13 536.833 1224.3 541C1218.63 545 1213.97 550.333 1210.3 557L1194.55 545C1196.72 541.5 1199.38 538.083 1202.55 534.75C1205.72 531.25 1209.38 528.167 1213.55 525.5C1217.88 522.833 1222.8 520.667 1228.3 519C1233.97 517.333 1240.38 516.5 1247.55 516.5C1255.05 516.5 1262.05 517.5 1268.55 519.5C1275.05 521.333 1280.72 524.167 1285.55 528C1290.38 531.667 1294.13 536.25 1296.8 541.75C1299.63 547.25 1301.05 553.5 1301.05 560.5C1301.05 566.167 1300.13 571.25 1298.3 575.75C1296.63 580.25 1294.22 584.167 1291.05 587.5C1288.05 590.833 1284.47 593.667 1280.3 596C1276.13 598.333 1271.72 600.083 1267.05 601.25V602.25C1271.88 603.25 1276.55 604.917 1281.05 607.25C1285.55 609.417 1289.55 612.333 1293.05 616C1296.55 619.5 1299.3 623.833 1301.3 629C1303.47 634 1304.55 639.75 1304.55 646.25C1304.55 653.75 1303.05 660.667 1300.05 667C1297.22 673.167 1293.13 678.5 1287.8 683C1282.63 687.333 1276.3 690.75 1268.8 693.25C1261.47 695.75 1253.3 697 1244.3 697C1236.63 697 1229.8 696.167 1223.8 694.5C1217.97 692.833 1212.72 690.583 1208.05 687.75C1203.55 684.917 1199.55 681.75 1196.05 678.25C1192.72 674.75 1189.72 671.083 1187.05 667.25L1202.8 655.25C1205.13 658.75 1207.55 661.917 1210.05 664.75C1212.55 667.583 1215.38 670.083 1218.55 672.25C1221.88 674.25 1225.63 675.833 1229.8 677C1233.97 678.167 1238.8 678.75 1244.3 678.75C1256.63 678.75 1266.05 675.917 1272.55 670.25C1279.22 664.583 1282.55 656.5 1282.55 646V644C1282.55 633.667 1279.3 625.667 1272.8 620C1266.47 614.333 1256.88 611.5 1244.05 611.5H1223.3V593.5H1242.55Z" fill="#FFD300" />
    </g>
    <g id="num-4">
        <rect x="1456.25" y="456.25" width="287.5" height="287.5" fill="#C1C1C1" stroke="#828282" stroke-width="12.5" />
        <path id="4" d="M1619.55 694V659.75H1533.55V641.25L1609.05 519.5H1639.55V642.5H1665.55V659.75H1639.55V694H1619.55ZM1552.3 642.5H1619.55V535.75H1618.55L1552.3 642.5Z" fill="#DEFF0A" />
    </g>
    <g id="num-5">
        <rect x="56.25" y="806.25" width="287.5" height="287.5" fill="#C1C1C1" stroke="#828282" stroke-width="12.5" />
        <path id="5" d="M250.299 887.75H172.299L167.299 954.5H169.049C173.382 948.667 178.215 944.083 183.549 940.75C188.882 937.25 196.215 935.5 205.549 935.5C213.216 935.5 220.216 936.75 226.549 939.25C233.049 941.583 238.632 945.083 243.299 949.75C247.966 954.417 251.632 960.083 254.299 966.75C256.966 973.25 258.299 980.75 258.299 989.25C258.299 997.75 256.966 1005.58 254.299 1012.75C251.632 1019.75 247.716 1025.83 242.549 1031C237.382 1036 231.132 1039.92 223.799 1042.75C216.465 1045.58 208.132 1047 198.799 1047C191.465 1047 184.882 1046.17 179.049 1044.5C173.382 1042.83 168.299 1040.58 163.799 1037.75C159.465 1034.92 155.632 1031.75 152.299 1028.25C148.965 1024.75 145.965 1021.08 143.299 1017.25L159.049 1005.25C161.382 1008.75 163.715 1011.92 166.049 1014.75C168.549 1017.58 171.382 1020.08 174.549 1022.25C177.715 1024.25 181.299 1025.83 185.299 1027C189.299 1028.17 193.965 1028.75 199.299 1028.75C211.299 1028.75 220.465 1025.5 226.799 1019C233.299 1012.5 236.549 1003.5 236.549 992V990C236.549 978.5 233.299 969.5 226.799 963C220.299 956.5 210.966 953.25 198.799 953.25C190.465 953.25 183.965 954.667 179.299 957.5C174.799 960.333 170.632 963.833 166.799 968L149.049 965.5L155.299 869.5H250.299V887.75Z" fill="#A1FF0A" />
    </g>
    <g id="num-6">
        <rect x="406.25" y="806.25" width="287.5" height="287.5" fill="#C1C1C1" stroke="#828282" stroke-width="12.5" />
        <path id="6" d="M550.299 1047C541.132 1047 532.882 1045.5 525.549 1042.5C518.215 1039.33 511.965 1034.92 506.799 1029.25C501.799 1023.42 497.882 1016.33 495.049 1008C492.382 999.667 491.049 990.333 491.049 980C491.049 967 492.965 954.833 496.799 943.5C500.799 932 505.799 921.583 511.799 912.25C517.965 902.75 524.799 894.417 532.299 887.25C539.799 879.917 547.132 874 554.299 869.5H581.299C571.799 876.333 563.299 883 555.799 889.5C548.465 896 541.965 902.833 536.299 910C530.632 917 525.882 924.583 522.049 932.75C518.215 940.75 515.049 949.833 512.549 960L513.799 960.5C517.965 953.333 523.465 947.417 530.299 942.75C537.132 937.917 545.966 935.5 556.799 935.5C564.466 935.5 571.466 936.75 577.799 939.25C584.132 941.75 589.632 945.333 594.299 950C598.965 954.667 602.549 960.333 605.049 967C607.716 973.667 609.049 981.083 609.049 989.25C609.049 997.75 607.632 1005.58 604.799 1012.75C601.966 1019.75 597.966 1025.83 592.799 1031C587.799 1036 581.632 1039.92 574.299 1042.75C567.132 1045.58 559.132 1047 550.299 1047ZM550.049 1029.25C562.049 1029.25 571.299 1026 577.799 1019.5C584.466 1013 587.799 1003.83 587.799 992V990C587.799 978.167 584.466 969 577.799 962.5C571.299 956 562.049 952.75 550.049 952.75C538.049 952.75 528.715 956 522.049 962.5C515.549 969 512.299 978.167 512.299 990V992C512.299 1003.83 515.549 1013 522.049 1019.5C528.715 1026 538.049 1029.25 550.049 1029.25Z" fill="#0AFF99" />
    </g>
    <g id="num-7">
        <rect x="756.25" y="806.25" width="287.5" height="287.5" fill="#C1C1C1" stroke="#828282" stroke-width="12.5" />
        <path id="7" d="M868.299 1044L936.549 887.5H860.049V920H841.299V869.5H957.799V888L890.799 1044H868.299Z" fill="#0AEFFF" />
    </g>
    <g id="num-8">
        <rect x="1106.25" y="806.25" width="287.5" height="287.5" fill="#C1C1C1" stroke="#828282" stroke-width="12.5" />
        <path id="8" d="M1250.05 1047C1239.88 1047 1230.97 1045.75 1223.3 1043.25C1215.63 1040.58 1209.22 1037 1204.05 1032.5C1199.05 1028 1195.22 1022.67 1192.55 1016.5C1190.05 1010.33 1188.8 1003.67 1188.8 996.5C1188.8 984.5 1192.05 975 1198.55 968C1205.05 961 1213.63 956.083 1224.3 953.25V951.25C1214.97 948.083 1207.55 943 1202.05 936C1196.72 928.833 1194.05 920.25 1194.05 910.25C1194.05 896.917 1198.97 886.333 1208.8 878.5C1218.63 870.5 1232.38 866.5 1250.05 866.5C1267.72 866.5 1281.47 870.5 1291.3 878.5C1301.13 886.333 1306.05 896.917 1306.05 910.25C1306.05 920.25 1303.3 928.833 1297.8 936C1292.47 943 1285.13 948.083 1275.8 951.25V953.25C1286.47 956.083 1295.05 961 1301.55 968C1308.05 975 1311.3 984.5 1311.3 996.5C1311.3 1003.67 1309.97 1010.33 1307.3 1016.5C1304.8 1022.67 1300.97 1028 1295.8 1032.5C1290.63 1037 1284.22 1040.58 1276.55 1043.25C1269.05 1045.75 1260.22 1047 1250.05 1047ZM1250.05 1029.25C1262.38 1029.25 1272.05 1026.5 1279.05 1021C1286.05 1015.5 1289.55 1007.75 1289.55 997.75V992.25C1289.55 982.25 1286.05 974.5 1279.05 969C1272.22 963.5 1262.55 960.75 1250.05 960.75C1237.55 960.75 1227.8 963.5 1220.8 969C1213.97 974.5 1210.55 982.25 1210.55 992.25V997.75C1210.55 1007.75 1214.05 1015.5 1221.05 1021C1228.05 1026.5 1237.72 1029.25 1250.05 1029.25ZM1250.05 943.75C1261.38 943.75 1269.97 941.333 1275.8 936.5C1281.8 931.667 1284.8 924.75 1284.8 915.75V912.25C1284.8 903.25 1281.72 896.333 1275.55 891.5C1269.55 886.667 1261.05 884.25 1250.05 884.25C1239.05 884.25 1230.47 886.667 1224.3 891.5C1218.3 896.333 1215.3 903.25 1215.3 912.25V915.75C1215.3 924.75 1218.22 931.667 1224.05 936.5C1230.05 941.333 1238.72 943.75 1250.05 943.75Z" fill="#147DF5" />
    </g>
    <g id="palette">
        <rect id="#ff0000" width="50" height="50" fill="#FF0000" />
        <rect id="#ff8700" x="50" width="50" height="50" fill="#FF8700" />
        <rect id="#ffd300" x="100" width="50" height="50" fill="#FFD300" />
        <rect id="#deff0a" x="150" width="50" height="50" fill="#DEFF0A" />
        <rect id="#a1ff0a" x="200" width="50" height="50" fill="#A1FF0A" />
        <rect id="#0aff99" x="250" width="50" height="50" fill="#0AFF99" />
        <rect id="#0aefff" x="300" width="50" height="50" fill="#0AEFFF" />
        <rect id="#147df5" x="350" width="50" height="50" fill="#147DF5" />
        <rect id="#c1c1c1" x="400" width="50" height="50" fill="#C1C1C1" />
        <rect id="#828282" x="450" width="50" height="50" fill="#828282" />
        <rect id="#818181" x="500" width="50" height="50" fill="#818181" />
    </g>
</svg>